G04 MADE WITH FRITZING*
G04 WWW.FRITZING.ORG*
G04 DOUBLE SIDED*
G04 HOLES PLATED*
G04 CONTOUR ON CENTER OF CONTOUR VECTOR*
%ASAXBY*%
%FSLAX23Y23*%
%MOIN*%
%OFA0B0*%
%SFA1.0B1.0*%
%ADD10C,0.010000*%
%ADD11R,0.001000X0.001000*%
%LNSILK1*%
G90*
G70*
G54D10*
X1020Y499D02*
X1020Y299D01*
D02*
X1020Y299D02*
X954Y299D01*
D02*
X954Y299D02*
X954Y499D01*
D02*
X954Y499D02*
X1020Y499D01*
D02*
X1252Y540D02*
X1252Y240D01*
D02*
X1252Y240D02*
X1352Y240D01*
D02*
X1352Y240D02*
X1352Y540D01*
D02*
X1352Y540D02*
X1252Y540D01*
D02*
X661Y540D02*
X661Y240D01*
D02*
X661Y240D02*
X761Y240D01*
D02*
X761Y240D02*
X761Y540D01*
D02*
X761Y540D02*
X661Y540D01*
G54D11*
X1Y787D02*
X1575Y787D01*
X1Y786D02*
X1575Y786D01*
X1Y785D02*
X1575Y785D01*
X1Y784D02*
X1575Y784D01*
X1Y783D02*
X1575Y783D01*
X1Y782D02*
X1575Y782D01*
X1Y781D02*
X1575Y781D01*
X1Y780D02*
X1575Y780D01*
X1Y779D02*
X8Y779D01*
X1568Y779D02*
X1575Y779D01*
X1Y778D02*
X8Y778D01*
X1568Y778D02*
X1575Y778D01*
X1Y777D02*
X8Y777D01*
X1568Y777D02*
X1575Y777D01*
X1Y776D02*
X8Y776D01*
X1568Y776D02*
X1575Y776D01*
X1Y775D02*
X8Y775D01*
X1568Y775D02*
X1575Y775D01*
X1Y774D02*
X8Y774D01*
X1568Y774D02*
X1575Y774D01*
X1Y773D02*
X8Y773D01*
X1568Y773D02*
X1575Y773D01*
X1Y772D02*
X8Y772D01*
X1568Y772D02*
X1575Y772D01*
X1Y771D02*
X8Y771D01*
X1568Y771D02*
X1575Y771D01*
X1Y770D02*
X8Y770D01*
X1568Y770D02*
X1575Y770D01*
X1Y769D02*
X8Y769D01*
X1568Y769D02*
X1575Y769D01*
X1Y768D02*
X8Y768D01*
X1568Y768D02*
X1575Y768D01*
X1Y767D02*
X8Y767D01*
X1568Y767D02*
X1575Y767D01*
X1Y766D02*
X8Y766D01*
X1568Y766D02*
X1575Y766D01*
X1Y765D02*
X8Y765D01*
X1568Y765D02*
X1575Y765D01*
X1Y764D02*
X8Y764D01*
X1568Y764D02*
X1575Y764D01*
X1Y763D02*
X8Y763D01*
X1568Y763D02*
X1575Y763D01*
X1Y762D02*
X8Y762D01*
X1568Y762D02*
X1575Y762D01*
X1Y761D02*
X8Y761D01*
X1568Y761D02*
X1575Y761D01*
X1Y760D02*
X8Y760D01*
X1568Y760D02*
X1575Y760D01*
X1Y759D02*
X3Y759D01*
X1568Y759D02*
X1575Y759D01*
X1Y758D02*
X3Y758D01*
X1568Y758D02*
X1575Y758D01*
X1Y757D02*
X3Y757D01*
X1568Y757D02*
X1575Y757D01*
X1Y756D02*
X3Y756D01*
X1568Y756D02*
X1575Y756D01*
X1Y755D02*
X3Y755D01*
X1568Y755D02*
X1575Y755D01*
X1Y754D02*
X3Y754D01*
X1568Y754D02*
X1575Y754D01*
X1Y753D02*
X3Y753D01*
X1568Y753D02*
X1575Y753D01*
X1Y752D02*
X3Y752D01*
X1568Y752D02*
X1575Y752D01*
X1Y751D02*
X3Y751D01*
X1568Y751D02*
X1575Y751D01*
X1Y750D02*
X3Y750D01*
X1568Y750D02*
X1575Y750D01*
X1Y749D02*
X3Y749D01*
X1568Y749D02*
X1575Y749D01*
X1Y748D02*
X3Y748D01*
X1568Y748D02*
X1575Y748D01*
X1Y747D02*
X3Y747D01*
X1568Y747D02*
X1575Y747D01*
X1Y746D02*
X3Y746D01*
X1568Y746D02*
X1575Y746D01*
X1Y745D02*
X3Y745D01*
X1568Y745D02*
X1575Y745D01*
X1Y744D02*
X3Y744D01*
X1568Y744D02*
X1575Y744D01*
X1Y743D02*
X3Y743D01*
X1568Y743D02*
X1575Y743D01*
X1Y742D02*
X3Y742D01*
X1568Y742D02*
X1575Y742D01*
X1Y741D02*
X3Y741D01*
X1568Y741D02*
X1575Y741D01*
X1Y740D02*
X3Y740D01*
X1568Y740D02*
X1575Y740D01*
X1Y739D02*
X3Y739D01*
X1568Y739D02*
X1575Y739D01*
X1Y738D02*
X3Y738D01*
X1568Y738D02*
X1575Y738D01*
X1Y737D02*
X3Y737D01*
X1568Y737D02*
X1575Y737D01*
X1Y736D02*
X3Y736D01*
X1568Y736D02*
X1575Y736D01*
X1Y735D02*
X3Y735D01*
X1568Y735D02*
X1575Y735D01*
X1Y734D02*
X3Y734D01*
X1568Y734D02*
X1575Y734D01*
X1Y733D02*
X3Y733D01*
X1568Y733D02*
X1575Y733D01*
X1Y732D02*
X3Y732D01*
X1568Y732D02*
X1575Y732D01*
X1Y731D02*
X3Y731D01*
X1568Y731D02*
X1575Y731D01*
X1Y730D02*
X3Y730D01*
X1568Y730D02*
X1575Y730D01*
X1Y729D02*
X3Y729D01*
X1568Y729D02*
X1575Y729D01*
X1Y728D02*
X3Y728D01*
X1568Y728D02*
X1575Y728D01*
X1Y727D02*
X3Y727D01*
X1568Y727D02*
X1575Y727D01*
X1Y726D02*
X3Y726D01*
X1568Y726D02*
X1575Y726D01*
X1Y725D02*
X3Y725D01*
X1568Y725D02*
X1575Y725D01*
X1Y724D02*
X3Y724D01*
X1568Y724D02*
X1575Y724D01*
X1Y723D02*
X3Y723D01*
X1568Y723D02*
X1575Y723D01*
X1Y722D02*
X3Y722D01*
X1568Y722D02*
X1575Y722D01*
X1Y721D02*
X3Y721D01*
X1568Y721D02*
X1575Y721D01*
X1Y720D02*
X3Y720D01*
X1568Y720D02*
X1575Y720D01*
X1Y719D02*
X3Y719D01*
X1568Y719D02*
X1575Y719D01*
X1Y718D02*
X3Y718D01*
X1568Y718D02*
X1575Y718D01*
X1Y717D02*
X3Y717D01*
X1568Y717D02*
X1575Y717D01*
X1Y716D02*
X3Y716D01*
X1568Y716D02*
X1575Y716D01*
X1Y715D02*
X3Y715D01*
X1568Y715D02*
X1575Y715D01*
X1Y714D02*
X3Y714D01*
X1568Y714D02*
X1575Y714D01*
X1Y713D02*
X3Y713D01*
X1568Y713D02*
X1575Y713D01*
X1Y712D02*
X3Y712D01*
X1568Y712D02*
X1575Y712D01*
X1Y711D02*
X3Y711D01*
X1568Y711D02*
X1575Y711D01*
X1Y710D02*
X3Y710D01*
X1568Y710D02*
X1575Y710D01*
X1Y709D02*
X3Y709D01*
X1568Y709D02*
X1575Y709D01*
X1Y708D02*
X3Y708D01*
X1568Y708D02*
X1575Y708D01*
X1Y707D02*
X3Y707D01*
X1568Y707D02*
X1575Y707D01*
X1Y706D02*
X3Y706D01*
X1568Y706D02*
X1575Y706D01*
X1Y705D02*
X3Y705D01*
X1568Y705D02*
X1575Y705D01*
X1Y704D02*
X3Y704D01*
X1568Y704D02*
X1575Y704D01*
X1Y703D02*
X3Y703D01*
X1568Y703D02*
X1575Y703D01*
X1Y702D02*
X3Y702D01*
X1568Y702D02*
X1575Y702D01*
X1Y701D02*
X3Y701D01*
X1568Y701D02*
X1575Y701D01*
X1Y700D02*
X3Y700D01*
X1568Y700D02*
X1575Y700D01*
X1Y699D02*
X3Y699D01*
X1568Y699D02*
X1575Y699D01*
X1Y698D02*
X3Y698D01*
X1568Y698D02*
X1575Y698D01*
X1Y697D02*
X3Y697D01*
X1568Y697D02*
X1575Y697D01*
X1Y696D02*
X3Y696D01*
X1568Y696D02*
X1575Y696D01*
X1Y695D02*
X3Y695D01*
X1568Y695D02*
X1575Y695D01*
X1Y694D02*
X3Y694D01*
X1568Y694D02*
X1575Y694D01*
X1Y693D02*
X3Y693D01*
X1568Y693D02*
X1575Y693D01*
X1Y692D02*
X3Y692D01*
X1568Y692D02*
X1575Y692D01*
X1Y691D02*
X3Y691D01*
X1568Y691D02*
X1575Y691D01*
X1Y690D02*
X3Y690D01*
X1568Y690D02*
X1575Y690D01*
X1Y689D02*
X3Y689D01*
X1568Y689D02*
X1575Y689D01*
X1Y688D02*
X3Y688D01*
X1568Y688D02*
X1575Y688D01*
X1Y687D02*
X3Y687D01*
X1568Y687D02*
X1575Y687D01*
X1Y686D02*
X3Y686D01*
X1568Y686D02*
X1575Y686D01*
X1Y685D02*
X3Y685D01*
X1568Y685D02*
X1575Y685D01*
X1Y684D02*
X3Y684D01*
X1568Y684D02*
X1575Y684D01*
X1Y683D02*
X3Y683D01*
X1568Y683D02*
X1575Y683D01*
X1Y682D02*
X3Y682D01*
X1568Y682D02*
X1575Y682D01*
X1Y681D02*
X3Y681D01*
X1568Y681D02*
X1575Y681D01*
X1Y680D02*
X3Y680D01*
X1568Y680D02*
X1575Y680D01*
X1Y679D02*
X3Y679D01*
X1568Y679D02*
X1575Y679D01*
X1Y678D02*
X3Y678D01*
X1568Y678D02*
X1575Y678D01*
X1Y677D02*
X3Y677D01*
X1568Y677D02*
X1575Y677D01*
X1Y676D02*
X3Y676D01*
X1568Y676D02*
X1575Y676D01*
X1Y675D02*
X3Y675D01*
X1568Y675D02*
X1575Y675D01*
X1Y674D02*
X3Y674D01*
X1568Y674D02*
X1575Y674D01*
X1Y673D02*
X3Y673D01*
X1568Y673D02*
X1575Y673D01*
X1Y672D02*
X3Y672D01*
X1568Y672D02*
X1575Y672D01*
X1Y671D02*
X3Y671D01*
X1568Y671D02*
X1575Y671D01*
X1Y670D02*
X3Y670D01*
X1568Y670D02*
X1575Y670D01*
X1Y669D02*
X3Y669D01*
X1568Y669D02*
X1575Y669D01*
X1Y668D02*
X3Y668D01*
X1568Y668D02*
X1575Y668D01*
X1Y667D02*
X3Y667D01*
X1568Y667D02*
X1575Y667D01*
X1Y666D02*
X3Y666D01*
X1568Y666D02*
X1575Y666D01*
X1Y665D02*
X3Y665D01*
X1568Y665D02*
X1575Y665D01*
X1Y664D02*
X3Y664D01*
X1568Y664D02*
X1575Y664D01*
X1Y663D02*
X3Y663D01*
X1568Y663D02*
X1575Y663D01*
X1Y662D02*
X3Y662D01*
X1568Y662D02*
X1575Y662D01*
X1Y661D02*
X3Y661D01*
X1568Y661D02*
X1575Y661D01*
X1Y660D02*
X3Y660D01*
X1568Y660D02*
X1575Y660D01*
X1Y659D02*
X3Y659D01*
X1568Y659D02*
X1575Y659D01*
X1Y658D02*
X3Y658D01*
X1568Y658D02*
X1575Y658D01*
X1Y657D02*
X3Y657D01*
X1568Y657D02*
X1575Y657D01*
X1Y656D02*
X3Y656D01*
X1568Y656D02*
X1575Y656D01*
X1Y655D02*
X3Y655D01*
X1568Y655D02*
X1575Y655D01*
X1Y654D02*
X3Y654D01*
X1568Y654D02*
X1575Y654D01*
X1Y653D02*
X3Y653D01*
X1568Y653D02*
X1575Y653D01*
X1Y652D02*
X3Y652D01*
X1568Y652D02*
X1575Y652D01*
X1Y651D02*
X3Y651D01*
X1568Y651D02*
X1575Y651D01*
X1Y650D02*
X3Y650D01*
X1568Y650D02*
X1575Y650D01*
X1Y649D02*
X3Y649D01*
X1568Y649D02*
X1575Y649D01*
X1Y648D02*
X3Y648D01*
X1568Y648D02*
X1575Y648D01*
X1Y647D02*
X3Y647D01*
X1568Y647D02*
X1575Y647D01*
X1Y646D02*
X3Y646D01*
X1568Y646D02*
X1575Y646D01*
X1Y645D02*
X3Y645D01*
X1568Y645D02*
X1575Y645D01*
X1Y644D02*
X3Y644D01*
X1568Y644D02*
X1575Y644D01*
X1Y643D02*
X3Y643D01*
X1568Y643D02*
X1575Y643D01*
X1Y642D02*
X3Y642D01*
X1568Y642D02*
X1575Y642D01*
X1Y641D02*
X3Y641D01*
X1568Y641D02*
X1575Y641D01*
X1Y640D02*
X3Y640D01*
X1568Y640D02*
X1575Y640D01*
X1Y639D02*
X3Y639D01*
X1568Y639D02*
X1575Y639D01*
X1Y638D02*
X3Y638D01*
X1568Y638D02*
X1575Y638D01*
X1Y637D02*
X3Y637D01*
X1568Y637D02*
X1575Y637D01*
X1Y636D02*
X3Y636D01*
X1568Y636D02*
X1575Y636D01*
X1Y635D02*
X3Y635D01*
X1568Y635D02*
X1575Y635D01*
X1Y634D02*
X3Y634D01*
X1568Y634D02*
X1575Y634D01*
X1Y633D02*
X3Y633D01*
X1568Y633D02*
X1575Y633D01*
X1Y632D02*
X3Y632D01*
X1568Y632D02*
X1575Y632D01*
X1Y631D02*
X3Y631D01*
X1568Y631D02*
X1575Y631D01*
X1Y630D02*
X3Y630D01*
X1297Y630D02*
X1301Y630D01*
X1568Y630D02*
X1575Y630D01*
X1Y629D02*
X3Y629D01*
X1295Y629D02*
X1303Y629D01*
X1568Y629D02*
X1575Y629D01*
X1Y628D02*
X3Y628D01*
X1295Y628D02*
X1304Y628D01*
X1568Y628D02*
X1575Y628D01*
X1Y627D02*
X3Y627D01*
X1200Y627D02*
X1215Y627D01*
X1240Y627D02*
X1251Y627D01*
X1295Y627D02*
X1304Y627D01*
X1568Y627D02*
X1575Y627D01*
X1Y626D02*
X3Y626D01*
X1197Y626D02*
X1216Y626D01*
X1238Y626D02*
X1253Y626D01*
X1294Y626D02*
X1304Y626D01*
X1568Y626D02*
X1575Y626D01*
X1Y625D02*
X3Y625D01*
X1195Y625D02*
X1217Y625D01*
X1238Y625D02*
X1253Y625D01*
X1294Y625D02*
X1304Y625D01*
X1568Y625D02*
X1575Y625D01*
X1Y624D02*
X3Y624D01*
X1194Y624D02*
X1217Y624D01*
X1237Y624D02*
X1254Y624D01*
X1294Y624D02*
X1304Y624D01*
X1568Y624D02*
X1575Y624D01*
X1Y623D02*
X3Y623D01*
X1193Y623D02*
X1217Y623D01*
X1238Y623D02*
X1254Y623D01*
X1295Y623D02*
X1304Y623D01*
X1568Y623D02*
X1575Y623D01*
X1Y622D02*
X3Y622D01*
X1193Y622D02*
X1217Y622D01*
X1238Y622D02*
X1254Y622D01*
X1295Y622D02*
X1303Y622D01*
X1568Y622D02*
X1575Y622D01*
X1Y621D02*
X3Y621D01*
X1192Y621D02*
X1216Y621D01*
X1239Y621D02*
X1254Y621D01*
X1296Y621D02*
X1303Y621D01*
X1568Y621D02*
X1575Y621D01*
X1Y620D02*
X3Y620D01*
X1192Y620D02*
X1200Y620D01*
X1248Y620D02*
X1254Y620D01*
X1568Y620D02*
X1575Y620D01*
X1Y619D02*
X3Y619D01*
X1191Y619D02*
X1198Y619D01*
X1248Y619D02*
X1254Y619D01*
X1568Y619D02*
X1575Y619D01*
X1Y618D02*
X3Y618D01*
X1191Y618D02*
X1198Y618D01*
X1248Y618D02*
X1254Y618D01*
X1568Y618D02*
X1575Y618D01*
X1Y617D02*
X3Y617D01*
X1190Y617D02*
X1197Y617D01*
X1248Y617D02*
X1254Y617D01*
X1568Y617D02*
X1575Y617D01*
X1Y616D02*
X3Y616D01*
X555Y616D02*
X573Y616D01*
X609Y616D02*
X632Y616D01*
X656Y616D02*
X674Y616D01*
X713Y616D02*
X730Y616D01*
X755Y616D02*
X779Y616D01*
X806Y616D02*
X835Y616D01*
X859Y616D02*
X885Y616D01*
X1190Y616D02*
X1197Y616D01*
X1248Y616D02*
X1254Y616D01*
X1568Y616D02*
X1575Y616D01*
X1Y615D02*
X3Y615D01*
X555Y615D02*
X575Y615D01*
X607Y615D02*
X634Y615D01*
X655Y615D02*
X674Y615D01*
X712Y615D02*
X731Y615D01*
X755Y615D02*
X781Y615D01*
X806Y615D02*
X836Y615D01*
X858Y615D02*
X886Y615D01*
X1189Y615D02*
X1196Y615D01*
X1248Y615D02*
X1254Y615D01*
X1568Y615D02*
X1575Y615D01*
X1Y614D02*
X3Y614D01*
X554Y614D02*
X576Y614D01*
X606Y614D02*
X635Y614D01*
X655Y614D02*
X674Y614D01*
X712Y614D02*
X731Y614D01*
X755Y614D02*
X783Y614D01*
X805Y614D02*
X837Y614D01*
X857Y614D02*
X887Y614D01*
X1189Y614D02*
X1196Y614D01*
X1248Y614D02*
X1254Y614D01*
X1351Y614D02*
X1351Y614D01*
X1568Y614D02*
X1575Y614D01*
X1Y613D02*
X3Y613D01*
X554Y613D02*
X577Y613D01*
X605Y613D02*
X636Y613D01*
X655Y613D02*
X674Y613D01*
X712Y613D02*
X731Y613D01*
X755Y613D02*
X784Y613D01*
X805Y613D02*
X838Y613D01*
X856Y613D02*
X888Y613D01*
X1188Y613D02*
X1195Y613D01*
X1248Y613D02*
X1254Y613D01*
X1336Y613D02*
X1339Y613D01*
X1347Y613D02*
X1356Y613D01*
X1568Y613D02*
X1575Y613D01*
X1Y612D02*
X3Y612D01*
X554Y612D02*
X578Y612D01*
X605Y612D02*
X637Y612D01*
X655Y612D02*
X674Y612D01*
X712Y612D02*
X731Y612D01*
X755Y612D02*
X785Y612D01*
X805Y612D02*
X838Y612D01*
X856Y612D02*
X888Y612D01*
X1188Y612D02*
X1195Y612D01*
X1248Y612D02*
X1254Y612D01*
X1289Y612D02*
X1302Y612D01*
X1335Y612D02*
X1340Y612D01*
X1345Y612D02*
X1358Y612D01*
X1391Y612D02*
X1411Y612D01*
X1568Y612D02*
X1575Y612D01*
X1Y611D02*
X3Y611D01*
X555Y611D02*
X579Y611D01*
X605Y611D02*
X637Y611D01*
X655Y611D02*
X674Y611D01*
X712Y611D02*
X731Y611D01*
X755Y611D02*
X786Y611D01*
X806Y611D02*
X838Y611D01*
X855Y611D02*
X889Y611D01*
X1187Y611D02*
X1194Y611D01*
X1248Y611D02*
X1254Y611D01*
X1288Y611D02*
X1303Y611D01*
X1334Y611D02*
X1340Y611D01*
X1344Y611D02*
X1359Y611D01*
X1389Y611D02*
X1414Y611D01*
X1568Y611D02*
X1575Y611D01*
X1Y610D02*
X3Y610D01*
X556Y610D02*
X579Y610D01*
X604Y610D02*
X637Y610D01*
X657Y610D02*
X674Y610D01*
X712Y610D02*
X731Y610D01*
X755Y610D02*
X786Y610D01*
X807Y610D02*
X839Y610D01*
X855Y610D02*
X889Y610D01*
X1187Y610D02*
X1194Y610D01*
X1248Y610D02*
X1254Y610D01*
X1288Y610D02*
X1304Y610D01*
X1334Y610D02*
X1340Y610D01*
X1343Y610D02*
X1360Y610D01*
X1388Y610D02*
X1415Y610D01*
X1568Y610D02*
X1575Y610D01*
X1Y609D02*
X3Y609D01*
X561Y609D02*
X567Y609D01*
X573Y609D02*
X580Y609D01*
X604Y609D02*
X610Y609D01*
X631Y609D02*
X638Y609D01*
X668Y609D02*
X674Y609D01*
X712Y609D02*
X718Y609D01*
X725Y609D02*
X731Y609D01*
X755Y609D02*
X761Y609D01*
X778Y609D02*
X787Y609D01*
X833Y609D02*
X839Y609D01*
X855Y609D02*
X861Y609D01*
X883Y609D02*
X889Y609D01*
X1186Y609D02*
X1193Y609D01*
X1248Y609D02*
X1254Y609D01*
X1288Y609D02*
X1304Y609D01*
X1334Y609D02*
X1361Y609D01*
X1387Y609D02*
X1416Y609D01*
X1568Y609D02*
X1575Y609D01*
X1Y608D02*
X3Y608D01*
X561Y608D02*
X567Y608D01*
X573Y608D02*
X580Y608D01*
X604Y608D02*
X611Y608D01*
X632Y608D02*
X638Y608D01*
X668Y608D02*
X674Y608D01*
X712Y608D02*
X718Y608D01*
X725Y608D02*
X731Y608D01*
X755Y608D02*
X761Y608D01*
X780Y608D02*
X787Y608D01*
X833Y608D02*
X839Y608D01*
X855Y608D02*
X861Y608D01*
X883Y608D02*
X889Y608D01*
X1186Y608D02*
X1193Y608D01*
X1248Y608D02*
X1254Y608D01*
X1288Y608D02*
X1304Y608D01*
X1334Y608D02*
X1362Y608D01*
X1387Y608D02*
X1417Y608D01*
X1568Y608D02*
X1575Y608D01*
X1Y607D02*
X3Y607D01*
X561Y607D02*
X567Y607D01*
X574Y607D02*
X581Y607D01*
X605Y607D02*
X611Y607D01*
X632Y607D02*
X638Y607D01*
X668Y607D02*
X674Y607D01*
X712Y607D02*
X718Y607D01*
X725Y607D02*
X731Y607D01*
X755Y607D02*
X761Y607D01*
X781Y607D02*
X788Y607D01*
X833Y607D02*
X839Y607D01*
X855Y607D02*
X861Y607D01*
X883Y607D02*
X889Y607D01*
X1185Y607D02*
X1192Y607D01*
X1248Y607D02*
X1254Y607D01*
X1288Y607D02*
X1304Y607D01*
X1334Y607D02*
X1364Y607D01*
X1386Y607D02*
X1417Y607D01*
X1568Y607D02*
X1575Y607D01*
X1Y606D02*
X3Y606D01*
X561Y606D02*
X567Y606D01*
X574Y606D02*
X581Y606D01*
X605Y606D02*
X612Y606D01*
X632Y606D02*
X637Y606D01*
X668Y606D02*
X674Y606D01*
X712Y606D02*
X718Y606D01*
X725Y606D02*
X731Y606D01*
X755Y606D02*
X761Y606D01*
X782Y606D02*
X788Y606D01*
X833Y606D02*
X839Y606D01*
X855Y606D02*
X861Y606D01*
X883Y606D02*
X889Y606D01*
X1185Y606D02*
X1192Y606D01*
X1248Y606D02*
X1254Y606D01*
X1289Y606D02*
X1304Y606D01*
X1334Y606D02*
X1348Y606D01*
X1355Y606D02*
X1365Y606D01*
X1386Y606D02*
X1417Y606D01*
X1568Y606D02*
X1575Y606D01*
X1Y605D02*
X3Y605D01*
X561Y605D02*
X567Y605D01*
X575Y605D02*
X582Y605D01*
X605Y605D02*
X613Y605D01*
X633Y605D02*
X637Y605D01*
X668Y605D02*
X674Y605D01*
X712Y605D02*
X718Y605D01*
X725Y605D02*
X731Y605D01*
X755Y605D02*
X761Y605D01*
X782Y605D02*
X788Y605D01*
X833Y605D02*
X839Y605D01*
X855Y605D02*
X861Y605D01*
X883Y605D02*
X889Y605D01*
X1185Y605D02*
X1191Y605D01*
X1248Y605D02*
X1254Y605D01*
X1298Y605D02*
X1304Y605D01*
X1334Y605D02*
X1347Y605D01*
X1356Y605D02*
X1365Y605D01*
X1386Y605D02*
X1392Y605D01*
X1411Y605D02*
X1417Y605D01*
X1568Y605D02*
X1575Y605D01*
X1Y604D02*
X3Y604D01*
X561Y604D02*
X567Y604D01*
X575Y604D02*
X582Y604D01*
X606Y604D02*
X614Y604D01*
X635Y604D02*
X635Y604D01*
X668Y604D02*
X674Y604D01*
X712Y604D02*
X718Y604D01*
X725Y604D02*
X731Y604D01*
X755Y604D02*
X761Y604D01*
X782Y604D02*
X788Y604D01*
X833Y604D02*
X839Y604D01*
X855Y604D02*
X861Y604D01*
X883Y604D02*
X889Y604D01*
X1184Y604D02*
X1191Y604D01*
X1248Y604D02*
X1254Y604D01*
X1298Y604D02*
X1304Y604D01*
X1334Y604D02*
X1346Y604D01*
X1357Y604D02*
X1366Y604D01*
X1385Y604D02*
X1391Y604D01*
X1412Y604D02*
X1417Y604D01*
X1568Y604D02*
X1575Y604D01*
X1Y603D02*
X3Y603D01*
X561Y603D02*
X567Y603D01*
X576Y603D02*
X583Y603D01*
X607Y603D02*
X615Y603D01*
X668Y603D02*
X674Y603D01*
X712Y603D02*
X718Y603D01*
X725Y603D02*
X731Y603D01*
X755Y603D02*
X761Y603D01*
X782Y603D02*
X788Y603D01*
X833Y603D02*
X839Y603D01*
X855Y603D02*
X861Y603D01*
X883Y603D02*
X889Y603D01*
X1184Y603D02*
X1190Y603D01*
X1248Y603D02*
X1254Y603D01*
X1298Y603D02*
X1304Y603D01*
X1334Y603D02*
X1345Y603D01*
X1358Y603D02*
X1367Y603D01*
X1386Y603D02*
X1391Y603D01*
X1413Y603D02*
X1415Y603D01*
X1568Y603D02*
X1575Y603D01*
X1Y602D02*
X3Y602D01*
X561Y602D02*
X567Y602D01*
X576Y602D02*
X583Y602D01*
X607Y602D02*
X615Y602D01*
X668Y602D02*
X674Y602D01*
X712Y602D02*
X718Y602D01*
X725Y602D02*
X731Y602D01*
X755Y602D02*
X761Y602D01*
X782Y602D02*
X788Y602D01*
X833Y602D02*
X839Y602D01*
X855Y602D02*
X861Y602D01*
X883Y602D02*
X889Y602D01*
X1184Y602D02*
X1190Y602D01*
X1248Y602D02*
X1254Y602D01*
X1298Y602D02*
X1304Y602D01*
X1334Y602D02*
X1344Y602D01*
X1360Y602D02*
X1367Y602D01*
X1386Y602D02*
X1392Y602D01*
X1568Y602D02*
X1575Y602D01*
X1Y601D02*
X3Y601D01*
X561Y601D02*
X567Y601D01*
X577Y601D02*
X584Y601D01*
X608Y601D02*
X616Y601D01*
X668Y601D02*
X674Y601D01*
X712Y601D02*
X718Y601D01*
X725Y601D02*
X731Y601D01*
X755Y601D02*
X761Y601D01*
X782Y601D02*
X788Y601D01*
X833Y601D02*
X839Y601D01*
X855Y601D02*
X861Y601D01*
X883Y601D02*
X889Y601D01*
X1184Y601D02*
X1190Y601D01*
X1248Y601D02*
X1254Y601D01*
X1298Y601D02*
X1304Y601D01*
X1334Y601D02*
X1343Y601D01*
X1361Y601D02*
X1368Y601D01*
X1386Y601D02*
X1394Y601D01*
X1568Y601D02*
X1575Y601D01*
X1Y600D02*
X3Y600D01*
X561Y600D02*
X567Y600D01*
X577Y600D02*
X584Y600D01*
X609Y600D02*
X617Y600D01*
X668Y600D02*
X674Y600D01*
X712Y600D02*
X718Y600D01*
X725Y600D02*
X731Y600D01*
X755Y600D02*
X761Y600D01*
X782Y600D02*
X788Y600D01*
X833Y600D02*
X839Y600D01*
X855Y600D02*
X861Y600D01*
X883Y600D02*
X889Y600D01*
X1184Y600D02*
X1190Y600D01*
X1248Y600D02*
X1254Y600D01*
X1298Y600D02*
X1304Y600D01*
X1334Y600D02*
X1342Y600D01*
X1361Y600D02*
X1368Y600D01*
X1386Y600D02*
X1397Y600D01*
X1568Y600D02*
X1575Y600D01*
X1Y599D02*
X3Y599D01*
X561Y599D02*
X567Y599D01*
X578Y599D02*
X585Y599D01*
X610Y599D02*
X618Y599D01*
X668Y599D02*
X674Y599D01*
X712Y599D02*
X718Y599D01*
X725Y599D02*
X731Y599D01*
X755Y599D02*
X761Y599D01*
X782Y599D02*
X788Y599D01*
X833Y599D02*
X839Y599D01*
X855Y599D02*
X861Y599D01*
X883Y599D02*
X889Y599D01*
X1184Y599D02*
X1190Y599D01*
X1248Y599D02*
X1254Y599D01*
X1298Y599D02*
X1304Y599D01*
X1334Y599D02*
X1341Y599D01*
X1362Y599D02*
X1368Y599D01*
X1387Y599D02*
X1399Y599D01*
X1568Y599D02*
X1575Y599D01*
X1Y598D02*
X3Y598D01*
X561Y598D02*
X567Y598D01*
X578Y598D02*
X585Y598D01*
X611Y598D02*
X619Y598D01*
X668Y598D02*
X674Y598D01*
X712Y598D02*
X718Y598D01*
X725Y598D02*
X731Y598D01*
X755Y598D02*
X761Y598D01*
X782Y598D02*
X788Y598D01*
X833Y598D02*
X839Y598D01*
X855Y598D02*
X861Y598D01*
X883Y598D02*
X889Y598D01*
X1184Y598D02*
X1190Y598D01*
X1248Y598D02*
X1254Y598D01*
X1298Y598D02*
X1304Y598D01*
X1334Y598D02*
X1341Y598D01*
X1362Y598D02*
X1368Y598D01*
X1388Y598D02*
X1401Y598D01*
X1568Y598D02*
X1575Y598D01*
X1Y597D02*
X3Y597D01*
X561Y597D02*
X567Y597D01*
X579Y597D02*
X586Y597D01*
X611Y597D02*
X619Y597D01*
X668Y597D02*
X674Y597D01*
X712Y597D02*
X718Y597D01*
X725Y597D02*
X731Y597D01*
X755Y597D02*
X761Y597D01*
X782Y597D02*
X788Y597D01*
X833Y597D02*
X839Y597D01*
X855Y597D02*
X861Y597D01*
X883Y597D02*
X889Y597D01*
X1184Y597D02*
X1190Y597D01*
X1248Y597D02*
X1254Y597D01*
X1298Y597D02*
X1304Y597D01*
X1334Y597D02*
X1340Y597D01*
X1362Y597D02*
X1368Y597D01*
X1388Y597D02*
X1404Y597D01*
X1568Y597D02*
X1575Y597D01*
X1Y596D02*
X3Y596D01*
X561Y596D02*
X567Y596D01*
X580Y596D02*
X586Y596D01*
X612Y596D02*
X620Y596D01*
X668Y596D02*
X674Y596D01*
X712Y596D02*
X718Y596D01*
X725Y596D02*
X731Y596D01*
X755Y596D02*
X761Y596D01*
X781Y596D02*
X788Y596D01*
X833Y596D02*
X839Y596D01*
X855Y596D02*
X861Y596D01*
X883Y596D02*
X889Y596D01*
X1184Y596D02*
X1191Y596D01*
X1248Y596D02*
X1254Y596D01*
X1298Y596D02*
X1304Y596D01*
X1334Y596D02*
X1340Y596D01*
X1362Y596D02*
X1368Y596D01*
X1390Y596D02*
X1406Y596D01*
X1568Y596D02*
X1575Y596D01*
X1Y595D02*
X3Y595D01*
X561Y595D02*
X567Y595D01*
X580Y595D02*
X587Y595D01*
X613Y595D02*
X621Y595D01*
X668Y595D02*
X674Y595D01*
X712Y595D02*
X718Y595D01*
X725Y595D02*
X731Y595D01*
X755Y595D02*
X761Y595D01*
X780Y595D02*
X787Y595D01*
X833Y595D02*
X839Y595D01*
X855Y595D02*
X861Y595D01*
X883Y595D02*
X889Y595D01*
X1185Y595D02*
X1191Y595D01*
X1248Y595D02*
X1254Y595D01*
X1298Y595D02*
X1304Y595D01*
X1334Y595D02*
X1340Y595D01*
X1362Y595D02*
X1368Y595D01*
X1392Y595D02*
X1408Y595D01*
X1568Y595D02*
X1575Y595D01*
X1Y594D02*
X3Y594D01*
X561Y594D02*
X567Y594D01*
X581Y594D02*
X587Y594D01*
X614Y594D02*
X622Y594D01*
X668Y594D02*
X674Y594D01*
X712Y594D02*
X718Y594D01*
X725Y594D02*
X731Y594D01*
X755Y594D02*
X761Y594D01*
X778Y594D02*
X787Y594D01*
X833Y594D02*
X839Y594D01*
X855Y594D02*
X861Y594D01*
X883Y594D02*
X889Y594D01*
X1185Y594D02*
X1192Y594D01*
X1248Y594D02*
X1254Y594D01*
X1298Y594D02*
X1304Y594D01*
X1334Y594D02*
X1340Y594D01*
X1362Y594D02*
X1368Y594D01*
X1394Y594D02*
X1411Y594D01*
X1568Y594D02*
X1575Y594D01*
X1Y593D02*
X3Y593D01*
X561Y593D02*
X567Y593D01*
X581Y593D02*
X587Y593D01*
X614Y593D02*
X622Y593D01*
X668Y593D02*
X674Y593D01*
X710Y593D02*
X733Y593D01*
X755Y593D02*
X786Y593D01*
X811Y593D02*
X839Y593D01*
X855Y593D02*
X861Y593D01*
X883Y593D02*
X889Y593D01*
X1185Y593D02*
X1192Y593D01*
X1248Y593D02*
X1254Y593D01*
X1298Y593D02*
X1304Y593D01*
X1334Y593D02*
X1340Y593D01*
X1362Y593D02*
X1368Y593D01*
X1396Y593D02*
X1413Y593D01*
X1568Y593D02*
X1575Y593D01*
X1Y592D02*
X3Y592D01*
X561Y592D02*
X567Y592D01*
X581Y592D02*
X587Y592D01*
X615Y592D02*
X623Y592D01*
X668Y592D02*
X674Y592D01*
X708Y592D02*
X735Y592D01*
X755Y592D02*
X786Y592D01*
X808Y592D02*
X838Y592D01*
X855Y592D02*
X861Y592D01*
X883Y592D02*
X889Y592D01*
X1186Y592D02*
X1193Y592D01*
X1248Y592D02*
X1254Y592D01*
X1298Y592D02*
X1304Y592D01*
X1334Y592D02*
X1340Y592D01*
X1362Y592D02*
X1368Y592D01*
X1399Y592D02*
X1414Y592D01*
X1568Y592D02*
X1575Y592D01*
X1Y591D02*
X3Y591D01*
X561Y591D02*
X567Y591D01*
X581Y591D02*
X588Y591D01*
X616Y591D02*
X624Y591D01*
X668Y591D02*
X674Y591D01*
X707Y591D02*
X736Y591D01*
X755Y591D02*
X785Y591D01*
X807Y591D02*
X838Y591D01*
X855Y591D02*
X861Y591D01*
X883Y591D02*
X889Y591D01*
X1186Y591D02*
X1193Y591D01*
X1248Y591D02*
X1254Y591D01*
X1298Y591D02*
X1304Y591D01*
X1334Y591D02*
X1340Y591D01*
X1362Y591D02*
X1368Y591D01*
X1401Y591D02*
X1415Y591D01*
X1568Y591D02*
X1575Y591D01*
X1Y590D02*
X3Y590D01*
X561Y590D02*
X567Y590D01*
X582Y590D02*
X588Y590D01*
X617Y590D02*
X625Y590D01*
X668Y590D02*
X674Y590D01*
X706Y590D02*
X737Y590D01*
X755Y590D02*
X784Y590D01*
X806Y590D02*
X838Y590D01*
X855Y590D02*
X861Y590D01*
X883Y590D02*
X889Y590D01*
X1187Y590D02*
X1194Y590D01*
X1248Y590D02*
X1254Y590D01*
X1298Y590D02*
X1304Y590D01*
X1334Y590D02*
X1340Y590D01*
X1362Y590D02*
X1368Y590D01*
X1403Y590D02*
X1416Y590D01*
X1568Y590D02*
X1575Y590D01*
X1Y589D02*
X3Y589D01*
X561Y589D02*
X567Y589D01*
X582Y589D02*
X588Y589D01*
X617Y589D02*
X626Y589D01*
X668Y589D02*
X674Y589D01*
X705Y589D02*
X738Y589D01*
X755Y589D02*
X784Y589D01*
X806Y589D02*
X837Y589D01*
X855Y589D02*
X861Y589D01*
X883Y589D02*
X889Y589D01*
X1187Y589D02*
X1194Y589D01*
X1248Y589D02*
X1254Y589D01*
X1298Y589D02*
X1304Y589D01*
X1334Y589D02*
X1340Y589D01*
X1362Y589D02*
X1368Y589D01*
X1406Y589D02*
X1417Y589D01*
X1568Y589D02*
X1575Y589D01*
X1Y588D02*
X3Y588D01*
X561Y588D02*
X567Y588D01*
X581Y588D02*
X588Y588D01*
X618Y588D02*
X626Y588D01*
X668Y588D02*
X674Y588D01*
X705Y588D02*
X738Y588D01*
X755Y588D02*
X785Y588D01*
X805Y588D02*
X836Y588D01*
X855Y588D02*
X861Y588D01*
X883Y588D02*
X889Y588D01*
X1188Y588D02*
X1195Y588D01*
X1248Y588D02*
X1254Y588D01*
X1298Y588D02*
X1304Y588D01*
X1334Y588D02*
X1340Y588D01*
X1362Y588D02*
X1368Y588D01*
X1408Y588D02*
X1417Y588D01*
X1568Y588D02*
X1575Y588D01*
X1Y587D02*
X3Y587D01*
X561Y587D02*
X567Y587D01*
X581Y587D02*
X587Y587D01*
X619Y587D02*
X627Y587D01*
X668Y587D02*
X674Y587D01*
X684Y587D02*
X686Y587D01*
X705Y587D02*
X738Y587D01*
X755Y587D02*
X786Y587D01*
X805Y587D02*
X835Y587D01*
X855Y587D02*
X861Y587D01*
X883Y587D02*
X889Y587D01*
X1188Y587D02*
X1195Y587D01*
X1248Y587D02*
X1254Y587D01*
X1298Y587D02*
X1304Y587D01*
X1334Y587D02*
X1341Y587D01*
X1362Y587D02*
X1368Y587D01*
X1410Y587D02*
X1418Y587D01*
X1568Y587D02*
X1575Y587D01*
X1Y586D02*
X3Y586D01*
X561Y586D02*
X567Y586D01*
X581Y586D02*
X587Y586D01*
X620Y586D02*
X628Y586D01*
X668Y586D02*
X674Y586D01*
X683Y586D02*
X687Y586D01*
X705Y586D02*
X711Y586D01*
X732Y586D02*
X738Y586D01*
X755Y586D02*
X761Y586D01*
X777Y586D02*
X787Y586D01*
X805Y586D02*
X811Y586D01*
X855Y586D02*
X861Y586D01*
X883Y586D02*
X889Y586D01*
X1189Y586D02*
X1196Y586D01*
X1248Y586D02*
X1254Y586D01*
X1298Y586D02*
X1304Y586D01*
X1334Y586D02*
X1341Y586D01*
X1362Y586D02*
X1368Y586D01*
X1411Y586D02*
X1418Y586D01*
X1568Y586D02*
X1575Y586D01*
X1Y585D02*
X3Y585D01*
X561Y585D02*
X567Y585D01*
X580Y585D02*
X587Y585D01*
X621Y585D02*
X629Y585D01*
X668Y585D02*
X674Y585D01*
X682Y585D02*
X688Y585D01*
X705Y585D02*
X711Y585D01*
X732Y585D02*
X738Y585D01*
X755Y585D02*
X761Y585D01*
X779Y585D02*
X787Y585D01*
X805Y585D02*
X811Y585D01*
X855Y585D02*
X861Y585D01*
X883Y585D02*
X889Y585D01*
X1189Y585D02*
X1196Y585D01*
X1248Y585D02*
X1254Y585D01*
X1298Y585D02*
X1304Y585D01*
X1334Y585D02*
X1342Y585D01*
X1361Y585D02*
X1368Y585D01*
X1412Y585D02*
X1418Y585D01*
X1568Y585D02*
X1575Y585D01*
X1Y584D02*
X3Y584D01*
X561Y584D02*
X567Y584D01*
X580Y584D02*
X586Y584D01*
X621Y584D02*
X629Y584D01*
X668Y584D02*
X674Y584D01*
X682Y584D02*
X688Y584D01*
X705Y584D02*
X711Y584D01*
X732Y584D02*
X738Y584D01*
X755Y584D02*
X761Y584D01*
X780Y584D02*
X788Y584D01*
X805Y584D02*
X811Y584D01*
X855Y584D02*
X861Y584D01*
X883Y584D02*
X889Y584D01*
X1190Y584D02*
X1197Y584D01*
X1248Y584D02*
X1254Y584D01*
X1298Y584D02*
X1304Y584D01*
X1334Y584D02*
X1343Y584D01*
X1360Y584D02*
X1367Y584D01*
X1412Y584D02*
X1418Y584D01*
X1568Y584D02*
X1575Y584D01*
X1Y583D02*
X3Y583D01*
X561Y583D02*
X567Y583D01*
X579Y583D02*
X586Y583D01*
X622Y583D02*
X630Y583D01*
X668Y583D02*
X674Y583D01*
X682Y583D02*
X688Y583D01*
X705Y583D02*
X711Y583D01*
X732Y583D02*
X738Y583D01*
X755Y583D02*
X761Y583D01*
X781Y583D02*
X788Y583D01*
X805Y583D02*
X811Y583D01*
X855Y583D02*
X861Y583D01*
X883Y583D02*
X889Y583D01*
X1191Y583D02*
X1197Y583D01*
X1248Y583D02*
X1254Y583D01*
X1298Y583D02*
X1304Y583D01*
X1334Y583D02*
X1344Y583D01*
X1359Y583D02*
X1367Y583D01*
X1412Y583D02*
X1418Y583D01*
X1568Y583D02*
X1575Y583D01*
X1Y582D02*
X3Y582D01*
X561Y582D02*
X567Y582D01*
X579Y582D02*
X586Y582D01*
X623Y582D02*
X631Y582D01*
X668Y582D02*
X674Y582D01*
X682Y582D02*
X688Y582D01*
X705Y582D02*
X711Y582D01*
X732Y582D02*
X738Y582D01*
X755Y582D02*
X761Y582D01*
X782Y582D02*
X788Y582D01*
X805Y582D02*
X811Y582D01*
X855Y582D02*
X861Y582D01*
X883Y582D02*
X889Y582D01*
X1191Y582D02*
X1198Y582D01*
X1248Y582D02*
X1254Y582D01*
X1298Y582D02*
X1304Y582D01*
X1334Y582D02*
X1345Y582D01*
X1358Y582D02*
X1367Y582D01*
X1386Y582D02*
X1390Y582D01*
X1411Y582D02*
X1418Y582D01*
X1568Y582D02*
X1575Y582D01*
X1Y581D02*
X3Y581D01*
X561Y581D02*
X567Y581D01*
X578Y581D02*
X585Y581D01*
X624Y581D02*
X632Y581D01*
X668Y581D02*
X674Y581D01*
X682Y581D02*
X688Y581D01*
X705Y581D02*
X711Y581D01*
X732Y581D02*
X738Y581D01*
X755Y581D02*
X761Y581D01*
X782Y581D02*
X788Y581D01*
X805Y581D02*
X811Y581D01*
X855Y581D02*
X861Y581D01*
X883Y581D02*
X889Y581D01*
X1192Y581D02*
X1199Y581D01*
X1248Y581D02*
X1254Y581D01*
X1298Y581D02*
X1304Y581D01*
X1334Y581D02*
X1346Y581D01*
X1356Y581D02*
X1366Y581D01*
X1385Y581D02*
X1391Y581D01*
X1411Y581D02*
X1418Y581D01*
X1568Y581D02*
X1575Y581D01*
X1Y580D02*
X3Y580D01*
X561Y580D02*
X567Y580D01*
X578Y580D02*
X585Y580D01*
X624Y580D02*
X633Y580D01*
X668Y580D02*
X674Y580D01*
X682Y580D02*
X688Y580D01*
X705Y580D02*
X711Y580D01*
X732Y580D02*
X738Y580D01*
X755Y580D02*
X761Y580D01*
X782Y580D02*
X788Y580D01*
X805Y580D02*
X811Y580D01*
X855Y580D02*
X861Y580D01*
X883Y580D02*
X889Y580D01*
X1192Y580D02*
X1214Y580D01*
X1240Y580D02*
X1261Y580D01*
X1290Y580D02*
X1311Y580D01*
X1334Y580D02*
X1347Y580D01*
X1355Y580D02*
X1365Y580D01*
X1385Y580D02*
X1417Y580D01*
X1568Y580D02*
X1575Y580D01*
X1Y579D02*
X3Y579D01*
X561Y579D02*
X567Y579D01*
X577Y579D02*
X584Y579D01*
X625Y579D02*
X633Y579D01*
X668Y579D02*
X674Y579D01*
X682Y579D02*
X688Y579D01*
X705Y579D02*
X711Y579D01*
X732Y579D02*
X738Y579D01*
X755Y579D02*
X761Y579D01*
X782Y579D02*
X788Y579D01*
X805Y579D02*
X811Y579D01*
X855Y579D02*
X861Y579D01*
X883Y579D02*
X889Y579D01*
X1193Y579D02*
X1216Y579D01*
X1238Y579D02*
X1263Y579D01*
X1289Y579D02*
X1313Y579D01*
X1334Y579D02*
X1349Y579D01*
X1354Y579D02*
X1364Y579D01*
X1385Y579D02*
X1417Y579D01*
X1568Y579D02*
X1575Y579D01*
X1Y578D02*
X3Y578D01*
X561Y578D02*
X567Y578D01*
X577Y578D02*
X584Y578D01*
X626Y578D02*
X634Y578D01*
X668Y578D02*
X674Y578D01*
X682Y578D02*
X688Y578D01*
X705Y578D02*
X711Y578D01*
X732Y578D02*
X738Y578D01*
X755Y578D02*
X761Y578D01*
X782Y578D02*
X788Y578D01*
X805Y578D02*
X811Y578D01*
X855Y578D02*
X861Y578D01*
X883Y578D02*
X889Y578D01*
X1193Y578D02*
X1217Y578D01*
X1238Y578D02*
X1264Y578D01*
X1288Y578D02*
X1314Y578D01*
X1334Y578D02*
X1363Y578D01*
X1385Y578D02*
X1416Y578D01*
X1568Y578D02*
X1575Y578D01*
X1Y577D02*
X3Y577D01*
X561Y577D02*
X567Y577D01*
X576Y577D02*
X583Y577D01*
X627Y577D02*
X635Y577D01*
X668Y577D02*
X674Y577D01*
X682Y577D02*
X688Y577D01*
X705Y577D02*
X711Y577D01*
X732Y577D02*
X738Y577D01*
X755Y577D02*
X761Y577D01*
X782Y577D02*
X788Y577D01*
X805Y577D02*
X811Y577D01*
X855Y577D02*
X861Y577D01*
X883Y577D02*
X889Y577D01*
X1194Y577D02*
X1217Y577D01*
X1237Y577D02*
X1264Y577D01*
X1288Y577D02*
X1314Y577D01*
X1334Y577D02*
X1362Y577D01*
X1386Y577D02*
X1416Y577D01*
X1568Y577D02*
X1575Y577D01*
X1Y576D02*
X3Y576D01*
X561Y576D02*
X567Y576D01*
X576Y576D02*
X583Y576D01*
X628Y576D02*
X636Y576D01*
X668Y576D02*
X674Y576D01*
X682Y576D02*
X688Y576D01*
X705Y576D02*
X711Y576D01*
X732Y576D02*
X738Y576D01*
X755Y576D02*
X761Y576D01*
X782Y576D02*
X788Y576D01*
X805Y576D02*
X811Y576D01*
X855Y576D02*
X861Y576D01*
X883Y576D02*
X889Y576D01*
X1195Y576D02*
X1217Y576D01*
X1238Y576D02*
X1264Y576D01*
X1288Y576D02*
X1314Y576D01*
X1334Y576D02*
X1340Y576D01*
X1342Y576D02*
X1360Y576D01*
X1387Y576D02*
X1415Y576D01*
X1568Y576D02*
X1575Y576D01*
X1Y575D02*
X3Y575D01*
X561Y575D02*
X567Y575D01*
X575Y575D02*
X582Y575D01*
X606Y575D02*
X608Y575D01*
X628Y575D02*
X636Y575D01*
X668Y575D02*
X674Y575D01*
X682Y575D02*
X688Y575D01*
X705Y575D02*
X711Y575D01*
X732Y575D02*
X738Y575D01*
X755Y575D02*
X761Y575D01*
X782Y575D02*
X788Y575D01*
X805Y575D02*
X811Y575D01*
X855Y575D02*
X861Y575D01*
X883Y575D02*
X889Y575D01*
X1196Y575D02*
X1217Y575D01*
X1238Y575D02*
X1264Y575D01*
X1288Y575D02*
X1314Y575D01*
X1334Y575D02*
X1340Y575D01*
X1343Y575D02*
X1359Y575D01*
X1388Y575D02*
X1413Y575D01*
X1568Y575D02*
X1575Y575D01*
X1Y574D02*
X3Y574D01*
X561Y574D02*
X567Y574D01*
X575Y574D02*
X582Y574D01*
X605Y574D02*
X610Y574D01*
X629Y574D02*
X637Y574D01*
X668Y574D02*
X674Y574D01*
X682Y574D02*
X688Y574D01*
X705Y574D02*
X711Y574D01*
X732Y574D02*
X738Y574D01*
X755Y574D02*
X761Y574D01*
X782Y574D02*
X788Y574D01*
X805Y574D02*
X811Y574D01*
X855Y574D02*
X861Y574D01*
X883Y574D02*
X889Y574D01*
X1198Y574D02*
X1216Y574D01*
X1239Y574D02*
X1263Y574D01*
X1289Y574D02*
X1313Y574D01*
X1334Y574D02*
X1340Y574D01*
X1344Y574D02*
X1358Y574D01*
X1391Y574D02*
X1412Y574D01*
X1568Y574D02*
X1575Y574D01*
X1Y573D02*
X3Y573D01*
X561Y573D02*
X567Y573D01*
X574Y573D02*
X581Y573D01*
X604Y573D02*
X610Y573D01*
X630Y573D02*
X637Y573D01*
X668Y573D02*
X674Y573D01*
X682Y573D02*
X688Y573D01*
X705Y573D02*
X711Y573D01*
X732Y573D02*
X738Y573D01*
X755Y573D02*
X761Y573D01*
X781Y573D02*
X788Y573D01*
X805Y573D02*
X811Y573D01*
X855Y573D02*
X861Y573D01*
X883Y573D02*
X889Y573D01*
X1334Y573D02*
X1340Y573D01*
X1346Y573D02*
X1357Y573D01*
X1568Y573D02*
X1575Y573D01*
X1Y572D02*
X3Y572D01*
X561Y572D02*
X567Y572D01*
X574Y572D02*
X581Y572D01*
X604Y572D02*
X610Y572D01*
X631Y572D02*
X638Y572D01*
X668Y572D02*
X674Y572D01*
X682Y572D02*
X688Y572D01*
X705Y572D02*
X711Y572D01*
X732Y572D02*
X738Y572D01*
X755Y572D02*
X761Y572D01*
X781Y572D02*
X788Y572D01*
X805Y572D02*
X811Y572D01*
X855Y572D02*
X861Y572D01*
X883Y572D02*
X889Y572D01*
X1334Y572D02*
X1340Y572D01*
X1349Y572D02*
X1354Y572D01*
X1568Y572D02*
X1575Y572D01*
X1Y571D02*
X3Y571D01*
X561Y571D02*
X567Y571D01*
X573Y571D02*
X580Y571D01*
X604Y571D02*
X611Y571D01*
X631Y571D02*
X638Y571D01*
X668Y571D02*
X674Y571D01*
X682Y571D02*
X688Y571D01*
X705Y571D02*
X711Y571D01*
X732Y571D02*
X738Y571D01*
X755Y571D02*
X761Y571D01*
X779Y571D02*
X787Y571D01*
X805Y571D02*
X811Y571D01*
X855Y571D02*
X861Y571D01*
X883Y571D02*
X889Y571D01*
X1334Y571D02*
X1340Y571D01*
X1568Y571D02*
X1575Y571D01*
X1Y570D02*
X3Y570D01*
X561Y570D02*
X567Y570D01*
X572Y570D02*
X580Y570D01*
X604Y570D02*
X611Y570D01*
X631Y570D02*
X638Y570D01*
X668Y570D02*
X674Y570D01*
X682Y570D02*
X688Y570D01*
X705Y570D02*
X711Y570D01*
X732Y570D02*
X738Y570D01*
X755Y570D02*
X761Y570D01*
X777Y570D02*
X787Y570D01*
X805Y570D02*
X811Y570D01*
X855Y570D02*
X861Y570D01*
X883Y570D02*
X889Y570D01*
X1334Y570D02*
X1340Y570D01*
X1568Y570D02*
X1575Y570D01*
X1Y569D02*
X3Y569D01*
X556Y569D02*
X579Y569D01*
X605Y569D02*
X638Y569D01*
X656Y569D02*
X688Y569D01*
X705Y569D02*
X738Y569D01*
X755Y569D02*
X786Y569D01*
X805Y569D02*
X837Y569D01*
X855Y569D02*
X889Y569D01*
X1334Y569D02*
X1340Y569D01*
X1568Y569D02*
X1575Y569D01*
X1Y568D02*
X3Y568D01*
X555Y568D02*
X579Y568D01*
X605Y568D02*
X637Y568D01*
X655Y568D02*
X688Y568D01*
X705Y568D02*
X738Y568D01*
X755Y568D02*
X785Y568D01*
X805Y568D02*
X838Y568D01*
X855Y568D02*
X889Y568D01*
X1334Y568D02*
X1340Y568D01*
X1568Y568D02*
X1575Y568D01*
X1Y567D02*
X3Y567D01*
X554Y567D02*
X578Y567D01*
X606Y567D02*
X637Y567D01*
X655Y567D02*
X688Y567D01*
X705Y567D02*
X738Y567D01*
X755Y567D02*
X784Y567D01*
X805Y567D02*
X838Y567D01*
X856Y567D02*
X888Y567D01*
X1334Y567D02*
X1340Y567D01*
X1568Y567D02*
X1575Y567D01*
X1Y566D02*
X3Y566D01*
X554Y566D02*
X577Y566D01*
X607Y566D02*
X636Y566D01*
X655Y566D02*
X688Y566D01*
X706Y566D02*
X737Y566D01*
X755Y566D02*
X783Y566D01*
X805Y566D02*
X839Y566D01*
X856Y566D02*
X888Y566D01*
X983Y566D02*
X992Y566D01*
X1334Y566D02*
X1340Y566D01*
X1568Y566D02*
X1575Y566D01*
X1Y565D02*
X3Y565D01*
X554Y565D02*
X576Y565D01*
X608Y565D02*
X635Y565D01*
X655Y565D02*
X688Y565D01*
X706Y565D02*
X736Y565D01*
X755Y565D02*
X782Y565D01*
X805Y565D02*
X838Y565D01*
X857Y565D02*
X887Y565D01*
X983Y565D02*
X992Y565D01*
X1334Y565D02*
X1340Y565D01*
X1568Y565D02*
X1575Y565D01*
X1Y564D02*
X3Y564D01*
X555Y564D02*
X575Y564D01*
X609Y564D02*
X634Y564D01*
X655Y564D02*
X687Y564D01*
X708Y564D02*
X735Y564D01*
X755Y564D02*
X780Y564D01*
X805Y564D02*
X838Y564D01*
X858Y564D02*
X886Y564D01*
X983Y564D02*
X992Y564D01*
X1334Y564D02*
X1340Y564D01*
X1568Y564D02*
X1575Y564D01*
X1Y563D02*
X3Y563D01*
X556Y563D02*
X572Y563D01*
X611Y563D02*
X632Y563D01*
X656Y563D02*
X686Y563D01*
X709Y563D02*
X733Y563D01*
X755Y563D02*
X778Y563D01*
X805Y563D02*
X837Y563D01*
X860Y563D02*
X884Y563D01*
X983Y563D02*
X992Y563D01*
X1334Y563D02*
X1340Y563D01*
X1568Y563D02*
X1575Y563D01*
X1Y562D02*
X3Y562D01*
X983Y562D02*
X992Y562D01*
X1334Y562D02*
X1340Y562D01*
X1568Y562D02*
X1575Y562D01*
X1Y561D02*
X3Y561D01*
X983Y561D02*
X992Y561D01*
X1335Y561D02*
X1340Y561D01*
X1568Y561D02*
X1575Y561D01*
X1Y560D02*
X3Y560D01*
X983Y560D02*
X992Y560D01*
X1335Y560D02*
X1340Y560D01*
X1568Y560D02*
X1575Y560D01*
X1Y559D02*
X3Y559D01*
X983Y559D02*
X992Y559D01*
X1336Y559D02*
X1339Y559D01*
X1568Y559D02*
X1575Y559D01*
X1Y558D02*
X3Y558D01*
X983Y558D02*
X992Y558D01*
X1568Y558D02*
X1575Y558D01*
X1Y557D02*
X3Y557D01*
X983Y557D02*
X992Y557D01*
X1568Y557D02*
X1575Y557D01*
X1Y556D02*
X3Y556D01*
X983Y556D02*
X992Y556D01*
X1568Y556D02*
X1575Y556D01*
X1Y555D02*
X3Y555D01*
X983Y555D02*
X992Y555D01*
X1568Y555D02*
X1575Y555D01*
X1Y554D02*
X3Y554D01*
X983Y554D02*
X992Y554D01*
X1568Y554D02*
X1575Y554D01*
X1Y553D02*
X3Y553D01*
X983Y553D02*
X992Y553D01*
X1568Y553D02*
X1575Y553D01*
X1Y552D02*
X3Y552D01*
X983Y552D02*
X992Y552D01*
X1568Y552D02*
X1575Y552D01*
X1Y551D02*
X3Y551D01*
X983Y551D02*
X992Y551D01*
X1568Y551D02*
X1575Y551D01*
X1Y550D02*
X3Y550D01*
X983Y550D02*
X992Y550D01*
X1568Y550D02*
X1575Y550D01*
X1Y549D02*
X3Y549D01*
X983Y549D02*
X992Y549D01*
X1568Y549D02*
X1575Y549D01*
X1Y548D02*
X3Y548D01*
X983Y548D02*
X992Y548D01*
X1568Y548D02*
X1575Y548D01*
X1Y547D02*
X3Y547D01*
X983Y547D02*
X992Y547D01*
X1568Y547D02*
X1575Y547D01*
X1Y546D02*
X3Y546D01*
X983Y546D02*
X992Y546D01*
X1568Y546D02*
X1575Y546D01*
X1Y545D02*
X3Y545D01*
X983Y545D02*
X992Y545D01*
X1568Y545D02*
X1575Y545D01*
X1Y544D02*
X3Y544D01*
X983Y544D02*
X992Y544D01*
X1568Y544D02*
X1575Y544D01*
X1Y543D02*
X3Y543D01*
X983Y543D02*
X992Y543D01*
X1568Y543D02*
X1575Y543D01*
X1Y542D02*
X3Y542D01*
X695Y542D02*
X695Y542D01*
X983Y542D02*
X992Y542D01*
X1285Y542D02*
X1285Y542D01*
X1568Y542D02*
X1575Y542D01*
X1Y541D02*
X3Y541D01*
X694Y541D02*
X696Y541D01*
X983Y541D02*
X992Y541D01*
X1284Y541D02*
X1286Y541D01*
X1568Y541D02*
X1575Y541D01*
X1Y540D02*
X3Y540D01*
X693Y540D02*
X697Y540D01*
X983Y540D02*
X992Y540D01*
X1283Y540D02*
X1287Y540D01*
X1568Y540D02*
X1575Y540D01*
X1Y539D02*
X3Y539D01*
X692Y539D02*
X698Y539D01*
X983Y539D02*
X992Y539D01*
X1282Y539D02*
X1288Y539D01*
X1568Y539D02*
X1575Y539D01*
X1Y538D02*
X3Y538D01*
X691Y538D02*
X697Y538D01*
X983Y538D02*
X992Y538D01*
X1281Y538D02*
X1288Y538D01*
X1568Y538D02*
X1575Y538D01*
X1Y537D02*
X3Y537D01*
X690Y537D02*
X696Y537D01*
X983Y537D02*
X992Y537D01*
X1280Y537D02*
X1287Y537D01*
X1568Y537D02*
X1575Y537D01*
X1Y536D02*
X8Y536D01*
X689Y536D02*
X695Y536D01*
X983Y536D02*
X992Y536D01*
X1279Y536D02*
X1286Y536D01*
X1568Y536D02*
X1575Y536D01*
X1Y535D02*
X8Y535D01*
X688Y535D02*
X694Y535D01*
X983Y535D02*
X992Y535D01*
X1278Y535D02*
X1285Y535D01*
X1568Y535D02*
X1575Y535D01*
X1Y534D02*
X8Y534D01*
X687Y534D02*
X693Y534D01*
X983Y534D02*
X992Y534D01*
X1277Y534D02*
X1284Y534D01*
X1568Y534D02*
X1575Y534D01*
X1Y533D02*
X8Y533D01*
X591Y533D02*
X596Y533D01*
X631Y533D02*
X635Y533D01*
X686Y533D02*
X692Y533D01*
X983Y533D02*
X992Y533D01*
X1276Y533D02*
X1283Y533D01*
X1568Y533D02*
X1575Y533D01*
X1Y532D02*
X8Y532D01*
X590Y532D02*
X597Y532D01*
X630Y532D02*
X637Y532D01*
X685Y532D02*
X691Y532D01*
X983Y532D02*
X992Y532D01*
X1275Y532D02*
X1282Y532D01*
X1568Y532D02*
X1575Y532D01*
X1Y531D02*
X8Y531D01*
X589Y531D02*
X598Y531D01*
X629Y531D02*
X637Y531D01*
X684Y531D02*
X690Y531D01*
X983Y531D02*
X992Y531D01*
X1274Y531D02*
X1281Y531D01*
X1568Y531D02*
X1575Y531D01*
X1Y530D02*
X8Y530D01*
X589Y530D02*
X598Y530D01*
X629Y530D02*
X638Y530D01*
X683Y530D02*
X689Y530D01*
X983Y530D02*
X992Y530D01*
X1273Y530D02*
X1280Y530D01*
X1568Y530D02*
X1575Y530D01*
X1Y529D02*
X8Y529D01*
X161Y529D02*
X190Y529D01*
X589Y529D02*
X598Y529D01*
X629Y529D02*
X638Y529D01*
X682Y529D02*
X688Y529D01*
X983Y529D02*
X992Y529D01*
X1272Y529D02*
X1279Y529D01*
X1568Y529D02*
X1575Y529D01*
X1Y528D02*
X8Y528D01*
X160Y528D02*
X191Y528D01*
X589Y528D02*
X598Y528D01*
X629Y528D02*
X638Y528D01*
X681Y528D02*
X687Y528D01*
X983Y528D02*
X992Y528D01*
X1271Y528D02*
X1278Y528D01*
X1568Y528D02*
X1575Y528D01*
X1Y527D02*
X8Y527D01*
X160Y527D02*
X192Y527D01*
X589Y527D02*
X598Y527D01*
X629Y527D02*
X638Y527D01*
X680Y527D02*
X686Y527D01*
X983Y527D02*
X992Y527D01*
X1270Y527D02*
X1277Y527D01*
X1568Y527D02*
X1575Y527D01*
X1Y526D02*
X8Y526D01*
X160Y526D02*
X192Y526D01*
X589Y526D02*
X598Y526D01*
X629Y526D02*
X638Y526D01*
X679Y526D02*
X685Y526D01*
X983Y526D02*
X992Y526D01*
X1269Y526D02*
X1276Y526D01*
X1568Y526D02*
X1575Y526D01*
X1Y525D02*
X8Y525D01*
X160Y525D02*
X193Y525D01*
X589Y525D02*
X598Y525D01*
X629Y525D02*
X638Y525D01*
X678Y525D02*
X684Y525D01*
X983Y525D02*
X992Y525D01*
X1268Y525D02*
X1274Y525D01*
X1568Y525D02*
X1575Y525D01*
X1Y524D02*
X8Y524D01*
X161Y524D02*
X193Y524D01*
X589Y524D02*
X598Y524D01*
X629Y524D02*
X638Y524D01*
X677Y524D02*
X683Y524D01*
X983Y524D02*
X992Y524D01*
X1267Y524D02*
X1273Y524D01*
X1568Y524D02*
X1575Y524D01*
X1Y523D02*
X8Y523D01*
X163Y523D02*
X193Y523D01*
X589Y523D02*
X598Y523D01*
X629Y523D02*
X638Y523D01*
X676Y523D02*
X681Y523D01*
X983Y523D02*
X992Y523D01*
X1266Y523D02*
X1272Y523D01*
X1568Y523D02*
X1575Y523D01*
X1Y522D02*
X8Y522D01*
X187Y522D02*
X193Y522D01*
X589Y522D02*
X598Y522D01*
X628Y522D02*
X638Y522D01*
X675Y522D02*
X680Y522D01*
X983Y522D02*
X992Y522D01*
X1265Y522D02*
X1271Y522D01*
X1568Y522D02*
X1575Y522D01*
X1Y521D02*
X8Y521D01*
X187Y521D02*
X193Y521D01*
X589Y521D02*
X599Y521D01*
X628Y521D02*
X638Y521D01*
X674Y521D02*
X679Y521D01*
X983Y521D02*
X992Y521D01*
X1264Y521D02*
X1270Y521D01*
X1568Y521D02*
X1575Y521D01*
X1Y520D02*
X8Y520D01*
X187Y520D02*
X193Y520D01*
X589Y520D02*
X600Y520D01*
X627Y520D02*
X638Y520D01*
X673Y520D02*
X679Y520D01*
X983Y520D02*
X992Y520D01*
X1263Y520D02*
X1269Y520D01*
X1568Y520D02*
X1575Y520D01*
X1Y519D02*
X8Y519D01*
X187Y519D02*
X193Y519D01*
X589Y519D02*
X601Y519D01*
X626Y519D02*
X638Y519D01*
X672Y519D02*
X678Y519D01*
X983Y519D02*
X992Y519D01*
X1262Y519D02*
X1268Y519D01*
X1568Y519D02*
X1575Y519D01*
X1Y518D02*
X8Y518D01*
X187Y518D02*
X193Y518D01*
X589Y518D02*
X601Y518D01*
X625Y518D02*
X637Y518D01*
X671Y518D02*
X677Y518D01*
X983Y518D02*
X992Y518D01*
X1261Y518D02*
X1267Y518D01*
X1568Y518D02*
X1575Y518D01*
X1Y517D02*
X8Y517D01*
X187Y517D02*
X193Y517D01*
X590Y517D02*
X602Y517D01*
X625Y517D02*
X636Y517D01*
X670Y517D02*
X676Y517D01*
X983Y517D02*
X992Y517D01*
X1260Y517D02*
X1266Y517D01*
X1568Y517D02*
X1575Y517D01*
X1Y516D02*
X8Y516D01*
X187Y516D02*
X193Y516D01*
X591Y516D02*
X603Y516D01*
X624Y516D02*
X636Y516D01*
X669Y516D02*
X675Y516D01*
X983Y516D02*
X992Y516D01*
X1259Y516D02*
X1266Y516D01*
X1568Y516D02*
X1575Y516D01*
X1Y515D02*
X8Y515D01*
X187Y515D02*
X193Y515D01*
X212Y515D02*
X213Y515D01*
X240Y515D02*
X241Y515D01*
X592Y515D02*
X604Y515D01*
X623Y515D02*
X635Y515D01*
X668Y515D02*
X674Y515D01*
X983Y515D02*
X992Y515D01*
X1258Y515D02*
X1265Y515D01*
X1568Y515D02*
X1575Y515D01*
X1Y514D02*
X8Y514D01*
X187Y514D02*
X193Y514D01*
X211Y514D02*
X215Y514D01*
X238Y514D02*
X242Y514D01*
X593Y514D02*
X604Y514D01*
X622Y514D02*
X634Y514D01*
X667Y514D02*
X673Y514D01*
X983Y514D02*
X992Y514D01*
X1257Y514D02*
X1264Y514D01*
X1568Y514D02*
X1575Y514D01*
X1Y513D02*
X8Y513D01*
X187Y513D02*
X193Y513D01*
X210Y513D02*
X216Y513D01*
X238Y513D02*
X243Y513D01*
X593Y513D02*
X605Y513D01*
X621Y513D02*
X633Y513D01*
X666Y513D02*
X672Y513D01*
X983Y513D02*
X992Y513D01*
X1256Y513D02*
X1263Y513D01*
X1568Y513D02*
X1575Y513D01*
X1Y512D02*
X8Y512D01*
X187Y512D02*
X193Y512D01*
X210Y512D02*
X216Y512D01*
X237Y512D02*
X243Y512D01*
X594Y512D02*
X606Y512D01*
X621Y512D02*
X633Y512D01*
X665Y512D02*
X671Y512D01*
X983Y512D02*
X992Y512D01*
X1255Y512D02*
X1262Y512D01*
X1568Y512D02*
X1575Y512D01*
X1Y511D02*
X8Y511D01*
X187Y511D02*
X193Y511D01*
X210Y511D02*
X216Y511D01*
X237Y511D02*
X243Y511D01*
X595Y511D02*
X607Y511D01*
X620Y511D02*
X632Y511D01*
X664Y511D02*
X670Y511D01*
X983Y511D02*
X992Y511D01*
X1254Y511D02*
X1261Y511D01*
X1568Y511D02*
X1575Y511D01*
X1Y510D02*
X8Y510D01*
X187Y510D02*
X193Y510D01*
X210Y510D02*
X216Y510D01*
X237Y510D02*
X243Y510D01*
X596Y510D02*
X608Y510D01*
X619Y510D02*
X631Y510D01*
X663Y510D02*
X669Y510D01*
X983Y510D02*
X992Y510D01*
X1253Y510D02*
X1260Y510D01*
X1568Y510D02*
X1575Y510D01*
X1Y509D02*
X8Y509D01*
X187Y509D02*
X193Y509D01*
X210Y509D02*
X216Y509D01*
X237Y509D02*
X243Y509D01*
X596Y509D02*
X608Y509D01*
X618Y509D02*
X630Y509D01*
X662Y509D02*
X668Y509D01*
X983Y509D02*
X992Y509D01*
X1252Y509D02*
X1259Y509D01*
X1568Y509D02*
X1575Y509D01*
X1Y508D02*
X8Y508D01*
X187Y508D02*
X193Y508D01*
X210Y508D02*
X216Y508D01*
X237Y508D02*
X243Y508D01*
X597Y508D02*
X609Y508D01*
X618Y508D02*
X629Y508D01*
X661Y508D02*
X667Y508D01*
X983Y508D02*
X992Y508D01*
X1251Y508D02*
X1258Y508D01*
X1568Y508D02*
X1575Y508D01*
X1Y507D02*
X8Y507D01*
X186Y507D02*
X193Y507D01*
X210Y507D02*
X216Y507D01*
X237Y507D02*
X243Y507D01*
X598Y507D02*
X610Y507D01*
X617Y507D02*
X629Y507D01*
X661Y507D02*
X666Y507D01*
X983Y507D02*
X992Y507D01*
X1251Y507D02*
X1257Y507D01*
X1568Y507D02*
X1575Y507D01*
X1Y506D02*
X8Y506D01*
X169Y506D02*
X192Y506D01*
X210Y506D02*
X216Y506D01*
X237Y506D02*
X243Y506D01*
X599Y506D02*
X611Y506D01*
X616Y506D02*
X628Y506D01*
X662Y506D02*
X665Y506D01*
X983Y506D02*
X992Y506D01*
X1252Y506D02*
X1256Y506D01*
X1568Y506D02*
X1575Y506D01*
X1Y505D02*
X8Y505D01*
X167Y505D02*
X192Y505D01*
X210Y505D02*
X217Y505D01*
X237Y505D02*
X243Y505D01*
X600Y505D02*
X611Y505D01*
X615Y505D02*
X627Y505D01*
X663Y505D02*
X664Y505D01*
X983Y505D02*
X992Y505D01*
X1253Y505D02*
X1255Y505D01*
X1568Y505D02*
X1575Y505D01*
X1Y504D02*
X8Y504D01*
X167Y504D02*
X191Y504D01*
X210Y504D02*
X217Y504D01*
X236Y504D02*
X243Y504D01*
X600Y504D02*
X612Y504D01*
X614Y504D02*
X626Y504D01*
X983Y504D02*
X992Y504D01*
X1568Y504D02*
X1575Y504D01*
X1Y503D02*
X8Y503D01*
X167Y503D02*
X191Y503D01*
X211Y503D02*
X217Y503D01*
X236Y503D02*
X242Y503D01*
X601Y503D02*
X625Y503D01*
X983Y503D02*
X992Y503D01*
X1568Y503D02*
X1575Y503D01*
X1Y502D02*
X8Y502D01*
X167Y502D02*
X191Y502D01*
X211Y502D02*
X218Y502D01*
X235Y502D02*
X242Y502D01*
X602Y502D02*
X625Y502D01*
X983Y502D02*
X992Y502D01*
X1568Y502D02*
X1575Y502D01*
X1Y501D02*
X8Y501D01*
X167Y501D02*
X192Y501D01*
X212Y501D02*
X218Y501D01*
X235Y501D02*
X242Y501D01*
X603Y501D02*
X624Y501D01*
X983Y501D02*
X992Y501D01*
X1568Y501D02*
X1575Y501D01*
X1Y500D02*
X8Y500D01*
X168Y500D02*
X192Y500D01*
X212Y500D02*
X219Y500D01*
X235Y500D02*
X241Y500D01*
X603Y500D02*
X623Y500D01*
X983Y500D02*
X992Y500D01*
X1568Y500D02*
X1575Y500D01*
X1Y499D02*
X8Y499D01*
X185Y499D02*
X193Y499D01*
X212Y499D02*
X219Y499D01*
X234Y499D02*
X241Y499D01*
X604Y499D02*
X622Y499D01*
X1568Y499D02*
X1575Y499D01*
X1Y498D02*
X8Y498D01*
X186Y498D02*
X193Y498D01*
X213Y498D02*
X220Y498D01*
X234Y498D02*
X240Y498D01*
X605Y498D02*
X622Y498D01*
X1568Y498D02*
X1575Y498D01*
X1Y497D02*
X8Y497D01*
X187Y497D02*
X193Y497D01*
X213Y497D02*
X220Y497D01*
X233Y497D02*
X240Y497D01*
X606Y497D02*
X621Y497D01*
X1568Y497D02*
X1575Y497D01*
X1Y496D02*
X8Y496D01*
X187Y496D02*
X193Y496D01*
X214Y496D02*
X220Y496D01*
X233Y496D02*
X239Y496D01*
X607Y496D02*
X620Y496D01*
X1568Y496D02*
X1575Y496D01*
X1Y495D02*
X8Y495D01*
X187Y495D02*
X193Y495D01*
X214Y495D02*
X221Y495D01*
X232Y495D02*
X239Y495D01*
X607Y495D02*
X619Y495D01*
X1568Y495D02*
X1575Y495D01*
X1Y494D02*
X8Y494D01*
X187Y494D02*
X193Y494D01*
X215Y494D02*
X221Y494D01*
X232Y494D02*
X239Y494D01*
X608Y494D02*
X618Y494D01*
X1568Y494D02*
X1575Y494D01*
X1Y493D02*
X8Y493D01*
X187Y493D02*
X193Y493D01*
X215Y493D02*
X222Y493D01*
X231Y493D02*
X238Y493D01*
X609Y493D02*
X618Y493D01*
X1568Y493D02*
X1575Y493D01*
X1Y492D02*
X8Y492D01*
X187Y492D02*
X193Y492D01*
X216Y492D02*
X222Y492D01*
X231Y492D02*
X238Y492D01*
X609Y492D02*
X618Y492D01*
X1568Y492D02*
X1575Y492D01*
X1Y491D02*
X8Y491D01*
X187Y491D02*
X193Y491D01*
X216Y491D02*
X223Y491D01*
X231Y491D02*
X237Y491D01*
X609Y491D02*
X618Y491D01*
X1568Y491D02*
X1575Y491D01*
X1Y490D02*
X8Y490D01*
X187Y490D02*
X193Y490D01*
X216Y490D02*
X223Y490D01*
X230Y490D02*
X237Y490D01*
X609Y490D02*
X618Y490D01*
X1568Y490D02*
X1575Y490D01*
X1Y489D02*
X8Y489D01*
X187Y489D02*
X193Y489D01*
X217Y489D02*
X223Y489D01*
X230Y489D02*
X236Y489D01*
X609Y489D02*
X618Y489D01*
X1568Y489D02*
X1575Y489D01*
X1Y488D02*
X8Y488D01*
X187Y488D02*
X193Y488D01*
X217Y488D02*
X224Y488D01*
X229Y488D02*
X236Y488D01*
X609Y488D02*
X618Y488D01*
X1568Y488D02*
X1575Y488D01*
X1Y487D02*
X8Y487D01*
X187Y487D02*
X193Y487D01*
X218Y487D02*
X224Y487D01*
X229Y487D02*
X235Y487D01*
X609Y487D02*
X618Y487D01*
X1568Y487D02*
X1575Y487D01*
X1Y486D02*
X8Y486D01*
X187Y486D02*
X193Y486D01*
X218Y486D02*
X225Y486D01*
X228Y486D02*
X235Y486D01*
X609Y486D02*
X618Y486D01*
X909Y486D02*
X943Y486D01*
X1568Y486D02*
X1575Y486D01*
X1Y485D02*
X8Y485D01*
X187Y485D02*
X193Y485D01*
X219Y485D02*
X225Y485D01*
X228Y485D02*
X235Y485D01*
X609Y485D02*
X618Y485D01*
X909Y485D02*
X944Y485D01*
X1568Y485D02*
X1575Y485D01*
X1Y484D02*
X8Y484D01*
X187Y484D02*
X193Y484D01*
X219Y484D02*
X234Y484D01*
X609Y484D02*
X618Y484D01*
X909Y484D02*
X944Y484D01*
X1568Y484D02*
X1575Y484D01*
X1Y483D02*
X8Y483D01*
X187Y483D02*
X193Y483D01*
X219Y483D02*
X234Y483D01*
X609Y483D02*
X618Y483D01*
X909Y483D02*
X944Y483D01*
X1568Y483D02*
X1575Y483D01*
X1Y482D02*
X8Y482D01*
X161Y482D02*
X193Y482D01*
X220Y482D02*
X233Y482D01*
X609Y482D02*
X618Y482D01*
X909Y482D02*
X944Y482D01*
X1568Y482D02*
X1575Y482D01*
X1Y481D02*
X8Y481D01*
X160Y481D02*
X193Y481D01*
X220Y481D02*
X233Y481D01*
X609Y481D02*
X618Y481D01*
X909Y481D02*
X944Y481D01*
X1568Y481D02*
X1575Y481D01*
X1Y480D02*
X8Y480D01*
X160Y480D02*
X193Y480D01*
X221Y480D02*
X232Y480D01*
X609Y480D02*
X618Y480D01*
X909Y480D02*
X942Y480D01*
X1568Y480D02*
X1575Y480D01*
X1Y479D02*
X8Y479D01*
X160Y479D02*
X192Y479D01*
X221Y479D02*
X232Y479D01*
X609Y479D02*
X618Y479D01*
X909Y479D02*
X915Y479D01*
X1568Y479D02*
X1575Y479D01*
X1Y478D02*
X8Y478D01*
X160Y478D02*
X191Y478D01*
X222Y478D02*
X232Y478D01*
X609Y478D02*
X618Y478D01*
X909Y478D02*
X915Y478D01*
X1568Y478D02*
X1575Y478D01*
X1Y477D02*
X8Y477D01*
X161Y477D02*
X190Y477D01*
X222Y477D02*
X231Y477D01*
X609Y477D02*
X618Y477D01*
X909Y477D02*
X915Y477D01*
X1568Y477D02*
X1575Y477D01*
X1Y476D02*
X8Y476D01*
X162Y476D02*
X188Y476D01*
X224Y476D02*
X230Y476D01*
X609Y476D02*
X618Y476D01*
X909Y476D02*
X915Y476D01*
X1568Y476D02*
X1575Y476D01*
X1Y475D02*
X8Y475D01*
X609Y475D02*
X618Y475D01*
X909Y475D02*
X915Y475D01*
X1568Y475D02*
X1575Y475D01*
X1Y474D02*
X8Y474D01*
X609Y474D02*
X618Y474D01*
X909Y474D02*
X915Y474D01*
X1568Y474D02*
X1575Y474D01*
X1Y473D02*
X8Y473D01*
X609Y473D02*
X618Y473D01*
X909Y473D02*
X915Y473D01*
X1568Y473D02*
X1575Y473D01*
X1Y472D02*
X8Y472D01*
X609Y472D02*
X618Y472D01*
X909Y472D02*
X915Y472D01*
X1568Y472D02*
X1575Y472D01*
X1Y471D02*
X8Y471D01*
X609Y471D02*
X618Y471D01*
X909Y471D02*
X915Y471D01*
X1568Y471D02*
X1575Y471D01*
X1Y470D02*
X8Y470D01*
X609Y470D02*
X618Y470D01*
X909Y470D02*
X915Y470D01*
X1568Y470D02*
X1575Y470D01*
X1Y469D02*
X8Y469D01*
X609Y469D02*
X618Y469D01*
X909Y469D02*
X915Y469D01*
X1568Y469D02*
X1575Y469D01*
X1Y468D02*
X8Y468D01*
X609Y468D02*
X618Y468D01*
X909Y468D02*
X915Y468D01*
X1568Y468D02*
X1575Y468D01*
X1Y467D02*
X8Y467D01*
X609Y467D02*
X618Y467D01*
X909Y467D02*
X915Y467D01*
X1568Y467D02*
X1575Y467D01*
X1Y466D02*
X8Y466D01*
X609Y466D02*
X618Y466D01*
X895Y466D02*
X935Y466D01*
X1568Y466D02*
X1575Y466D01*
X1Y465D02*
X8Y465D01*
X609Y465D02*
X618Y465D01*
X892Y465D02*
X937Y465D01*
X1568Y465D02*
X1575Y465D01*
X1Y464D02*
X8Y464D01*
X609Y464D02*
X618Y464D01*
X892Y464D02*
X938Y464D01*
X1568Y464D02*
X1575Y464D01*
X1Y463D02*
X8Y463D01*
X609Y463D02*
X618Y463D01*
X891Y463D02*
X938Y463D01*
X1568Y463D02*
X1575Y463D01*
X1Y462D02*
X8Y462D01*
X609Y462D02*
X618Y462D01*
X891Y462D02*
X938Y462D01*
X1568Y462D02*
X1575Y462D01*
X1Y461D02*
X8Y461D01*
X609Y461D02*
X618Y461D01*
X892Y461D02*
X938Y461D01*
X1568Y461D02*
X1575Y461D01*
X1Y460D02*
X8Y460D01*
X609Y460D02*
X618Y460D01*
X892Y460D02*
X937Y460D01*
X1568Y460D02*
X1575Y460D01*
X1Y459D02*
X8Y459D01*
X609Y459D02*
X617Y459D01*
X895Y459D02*
X935Y459D01*
X1568Y459D02*
X1575Y459D01*
X1Y458D02*
X8Y458D01*
X610Y458D02*
X617Y458D01*
X909Y458D02*
X915Y458D01*
X1568Y458D02*
X1575Y458D01*
X1Y457D02*
X8Y457D01*
X611Y457D02*
X616Y457D01*
X910Y457D02*
X914Y457D01*
X1568Y457D02*
X1575Y457D01*
X1Y456D02*
X8Y456D01*
X911Y456D02*
X913Y456D01*
X1568Y456D02*
X1575Y456D01*
X1Y455D02*
X8Y455D01*
X1568Y455D02*
X1575Y455D01*
X1Y454D02*
X8Y454D01*
X1568Y454D02*
X1575Y454D01*
X1Y453D02*
X8Y453D01*
X1568Y453D02*
X1575Y453D01*
X1Y452D02*
X8Y452D01*
X1568Y452D02*
X1575Y452D01*
X1Y451D02*
X8Y451D01*
X1568Y451D02*
X1575Y451D01*
X1Y450D02*
X8Y450D01*
X1568Y450D02*
X1575Y450D01*
X1Y449D02*
X8Y449D01*
X1568Y449D02*
X1575Y449D01*
X1Y448D02*
X8Y448D01*
X1568Y448D02*
X1575Y448D01*
X1Y447D02*
X8Y447D01*
X1568Y447D02*
X1575Y447D01*
X1Y446D02*
X8Y446D01*
X1568Y446D02*
X1575Y446D01*
X1Y445D02*
X8Y445D01*
X1568Y445D02*
X1575Y445D01*
X1Y444D02*
X8Y444D01*
X1568Y444D02*
X1575Y444D01*
X1Y443D02*
X8Y443D01*
X1568Y443D02*
X1575Y443D01*
X1Y442D02*
X8Y442D01*
X1568Y442D02*
X1575Y442D01*
X1Y441D02*
X8Y441D01*
X1568Y441D02*
X1575Y441D01*
X1Y440D02*
X8Y440D01*
X1568Y440D02*
X1575Y440D01*
X1Y439D02*
X8Y439D01*
X1568Y439D02*
X1575Y439D01*
X1Y438D02*
X8Y438D01*
X1568Y438D02*
X1575Y438D01*
X1Y437D02*
X8Y437D01*
X595Y437D02*
X628Y437D01*
X1121Y437D02*
X1155Y437D01*
X1568Y437D02*
X1575Y437D01*
X1Y436D02*
X8Y436D01*
X594Y436D02*
X633Y436D01*
X1119Y436D02*
X1159Y436D01*
X1568Y436D02*
X1575Y436D01*
X1Y435D02*
X8Y435D01*
X594Y435D02*
X635Y435D01*
X1118Y435D02*
X1161Y435D01*
X1568Y435D02*
X1575Y435D01*
X1Y434D02*
X8Y434D01*
X594Y434D02*
X637Y434D01*
X1117Y434D02*
X1162Y434D01*
X1568Y434D02*
X1575Y434D01*
X1Y433D02*
X8Y433D01*
X594Y433D02*
X638Y433D01*
X1117Y433D02*
X1163Y433D01*
X1568Y433D02*
X1575Y433D01*
X1Y432D02*
X8Y432D01*
X594Y432D02*
X639Y432D01*
X1116Y432D02*
X1164Y432D01*
X1568Y432D02*
X1575Y432D01*
X1Y431D02*
X8Y431D01*
X594Y431D02*
X640Y431D01*
X1117Y431D02*
X1164Y431D01*
X1568Y431D02*
X1575Y431D01*
X1Y430D02*
X8Y430D01*
X594Y430D02*
X641Y430D01*
X1117Y430D02*
X1165Y430D01*
X1568Y430D02*
X1575Y430D01*
X1Y429D02*
X8Y429D01*
X594Y429D02*
X641Y429D01*
X1118Y429D02*
X1165Y429D01*
X1568Y429D02*
X1575Y429D01*
X1Y428D02*
X8Y428D01*
X594Y428D02*
X642Y428D01*
X1118Y428D02*
X1165Y428D01*
X1568Y428D02*
X1575Y428D01*
X1Y427D02*
X8Y427D01*
X594Y427D02*
X642Y427D01*
X901Y427D02*
X911Y427D01*
X1121Y427D02*
X1165Y427D01*
X1568Y427D02*
X1575Y427D01*
X1Y426D02*
X8Y426D01*
X594Y426D02*
X603Y426D01*
X631Y426D02*
X642Y426D01*
X900Y426D02*
X911Y426D01*
X1156Y426D02*
X1165Y426D01*
X1568Y426D02*
X1575Y426D01*
X1Y425D02*
X8Y425D01*
X594Y425D02*
X603Y425D01*
X633Y425D02*
X643Y425D01*
X900Y425D02*
X912Y425D01*
X1156Y425D02*
X1165Y425D01*
X1568Y425D02*
X1575Y425D01*
X1Y424D02*
X8Y424D01*
X594Y424D02*
X603Y424D01*
X633Y424D02*
X643Y424D01*
X900Y424D02*
X912Y424D01*
X1156Y424D02*
X1165Y424D01*
X1568Y424D02*
X1575Y424D01*
X1Y423D02*
X8Y423D01*
X594Y423D02*
X603Y423D01*
X634Y423D02*
X643Y423D01*
X900Y423D02*
X912Y423D01*
X1156Y423D02*
X1165Y423D01*
X1568Y423D02*
X1575Y423D01*
X1Y422D02*
X8Y422D01*
X594Y422D02*
X603Y422D01*
X634Y422D02*
X643Y422D01*
X900Y422D02*
X912Y422D01*
X1156Y422D02*
X1165Y422D01*
X1568Y422D02*
X1575Y422D01*
X1Y421D02*
X8Y421D01*
X594Y421D02*
X603Y421D01*
X634Y421D02*
X643Y421D01*
X900Y421D02*
X912Y421D01*
X1156Y421D02*
X1165Y421D01*
X1568Y421D02*
X1575Y421D01*
X1Y420D02*
X8Y420D01*
X594Y420D02*
X603Y420D01*
X634Y420D02*
X643Y420D01*
X900Y420D02*
X912Y420D01*
X1156Y420D02*
X1165Y420D01*
X1568Y420D02*
X1575Y420D01*
X1Y419D02*
X8Y419D01*
X594Y419D02*
X603Y419D01*
X634Y419D02*
X643Y419D01*
X900Y419D02*
X912Y419D01*
X1156Y419D02*
X1165Y419D01*
X1568Y419D02*
X1575Y419D01*
X1Y418D02*
X8Y418D01*
X594Y418D02*
X603Y418D01*
X634Y418D02*
X643Y418D01*
X900Y418D02*
X912Y418D01*
X1156Y418D02*
X1165Y418D01*
X1568Y418D02*
X1575Y418D01*
X1Y417D02*
X8Y417D01*
X594Y417D02*
X603Y417D01*
X634Y417D02*
X643Y417D01*
X900Y417D02*
X912Y417D01*
X1156Y417D02*
X1165Y417D01*
X1568Y417D02*
X1575Y417D01*
X1Y416D02*
X8Y416D01*
X594Y416D02*
X603Y416D01*
X634Y416D02*
X643Y416D01*
X900Y416D02*
X912Y416D01*
X1156Y416D02*
X1165Y416D01*
X1568Y416D02*
X1575Y416D01*
X1Y415D02*
X8Y415D01*
X594Y415D02*
X603Y415D01*
X634Y415D02*
X643Y415D01*
X901Y415D02*
X911Y415D01*
X1156Y415D02*
X1165Y415D01*
X1191Y415D02*
X1195Y415D01*
X1231Y415D02*
X1235Y415D01*
X1568Y415D02*
X1575Y415D01*
X1Y414D02*
X8Y414D01*
X594Y414D02*
X603Y414D01*
X633Y414D02*
X643Y414D01*
X903Y414D02*
X909Y414D01*
X1156Y414D02*
X1165Y414D01*
X1190Y414D02*
X1197Y414D01*
X1230Y414D02*
X1236Y414D01*
X1568Y414D02*
X1575Y414D01*
X1Y413D02*
X8Y413D01*
X594Y413D02*
X603Y413D01*
X632Y413D02*
X643Y413D01*
X1156Y413D02*
X1165Y413D01*
X1189Y413D02*
X1197Y413D01*
X1229Y413D02*
X1237Y413D01*
X1568Y413D02*
X1575Y413D01*
X1Y412D02*
X8Y412D01*
X594Y412D02*
X603Y412D01*
X631Y412D02*
X642Y412D01*
X1156Y412D02*
X1165Y412D01*
X1189Y412D02*
X1198Y412D01*
X1229Y412D02*
X1237Y412D01*
X1568Y412D02*
X1575Y412D01*
X1Y411D02*
X8Y411D01*
X594Y411D02*
X642Y411D01*
X1156Y411D02*
X1165Y411D01*
X1189Y411D02*
X1198Y411D01*
X1228Y411D02*
X1237Y411D01*
X1568Y411D02*
X1575Y411D01*
X1Y410D02*
X8Y410D01*
X594Y410D02*
X641Y410D01*
X1156Y410D02*
X1165Y410D01*
X1189Y410D02*
X1198Y410D01*
X1228Y410D02*
X1238Y410D01*
X1568Y410D02*
X1575Y410D01*
X1Y409D02*
X8Y409D01*
X594Y409D02*
X641Y409D01*
X1156Y409D02*
X1165Y409D01*
X1189Y409D02*
X1198Y409D01*
X1228Y409D02*
X1238Y409D01*
X1568Y409D02*
X1575Y409D01*
X1Y408D02*
X8Y408D01*
X594Y408D02*
X640Y408D01*
X1156Y408D02*
X1165Y408D01*
X1189Y408D02*
X1198Y408D01*
X1228Y408D02*
X1238Y408D01*
X1568Y408D02*
X1575Y408D01*
X1Y407D02*
X8Y407D01*
X594Y407D02*
X639Y407D01*
X1156Y407D02*
X1165Y407D01*
X1189Y407D02*
X1198Y407D01*
X1228Y407D02*
X1238Y407D01*
X1568Y407D02*
X1575Y407D01*
X1Y406D02*
X8Y406D01*
X594Y406D02*
X638Y406D01*
X1156Y406D02*
X1165Y406D01*
X1189Y406D02*
X1198Y406D01*
X1228Y406D02*
X1238Y406D01*
X1568Y406D02*
X1575Y406D01*
X1Y405D02*
X8Y405D01*
X594Y405D02*
X637Y405D01*
X1155Y405D02*
X1165Y405D01*
X1189Y405D02*
X1198Y405D01*
X1228Y405D02*
X1238Y405D01*
X1568Y405D02*
X1575Y405D01*
X1Y404D02*
X8Y404D01*
X594Y404D02*
X636Y404D01*
X1154Y404D02*
X1165Y404D01*
X1189Y404D02*
X1198Y404D01*
X1228Y404D02*
X1238Y404D01*
X1568Y404D02*
X1575Y404D01*
X1Y403D02*
X8Y403D01*
X594Y403D02*
X634Y403D01*
X1131Y403D02*
X1164Y403D01*
X1189Y403D02*
X1198Y403D01*
X1228Y403D02*
X1238Y403D01*
X1568Y403D02*
X1575Y403D01*
X1Y402D02*
X8Y402D01*
X594Y402D02*
X632Y402D01*
X1128Y402D02*
X1164Y402D01*
X1189Y402D02*
X1198Y402D01*
X1228Y402D02*
X1237Y402D01*
X1568Y402D02*
X1575Y402D01*
X1Y401D02*
X8Y401D01*
X594Y401D02*
X603Y401D01*
X611Y401D02*
X622Y401D01*
X1127Y401D02*
X1163Y401D01*
X1189Y401D02*
X1199Y401D01*
X1227Y401D02*
X1237Y401D01*
X1568Y401D02*
X1575Y401D01*
X1Y400D02*
X8Y400D01*
X594Y400D02*
X603Y400D01*
X612Y400D02*
X623Y400D01*
X1127Y400D02*
X1163Y400D01*
X1189Y400D02*
X1199Y400D01*
X1227Y400D02*
X1237Y400D01*
X1568Y400D02*
X1575Y400D01*
X1Y399D02*
X8Y399D01*
X594Y399D02*
X603Y399D01*
X613Y399D02*
X623Y399D01*
X1127Y399D02*
X1162Y399D01*
X1190Y399D02*
X1200Y399D01*
X1226Y399D02*
X1236Y399D01*
X1568Y399D02*
X1575Y399D01*
X1Y398D02*
X8Y398D01*
X594Y398D02*
X603Y398D01*
X613Y398D02*
X624Y398D01*
X1126Y398D02*
X1161Y398D01*
X1190Y398D02*
X1200Y398D01*
X1226Y398D02*
X1236Y398D01*
X1568Y398D02*
X1575Y398D01*
X1Y397D02*
X8Y397D01*
X594Y397D02*
X603Y397D01*
X614Y397D02*
X625Y397D01*
X1127Y397D02*
X1162Y397D01*
X1191Y397D02*
X1201Y397D01*
X1226Y397D02*
X1236Y397D01*
X1568Y397D02*
X1575Y397D01*
X1Y396D02*
X8Y396D01*
X594Y396D02*
X603Y396D01*
X614Y396D02*
X625Y396D01*
X1127Y396D02*
X1163Y396D01*
X1191Y396D02*
X1201Y396D01*
X1225Y396D02*
X1235Y396D01*
X1568Y396D02*
X1575Y396D01*
X1Y395D02*
X8Y395D01*
X594Y395D02*
X603Y395D01*
X615Y395D02*
X626Y395D01*
X1127Y395D02*
X1163Y395D01*
X1191Y395D02*
X1201Y395D01*
X1225Y395D02*
X1235Y395D01*
X1568Y395D02*
X1575Y395D01*
X1Y394D02*
X8Y394D01*
X594Y394D02*
X603Y394D01*
X616Y394D02*
X626Y394D01*
X1129Y394D02*
X1164Y394D01*
X1192Y394D02*
X1202Y394D01*
X1224Y394D02*
X1234Y394D01*
X1568Y394D02*
X1575Y394D01*
X1Y393D02*
X8Y393D01*
X594Y393D02*
X603Y393D01*
X616Y393D02*
X627Y393D01*
X1151Y393D02*
X1164Y393D01*
X1192Y393D02*
X1202Y393D01*
X1224Y393D02*
X1234Y393D01*
X1568Y393D02*
X1575Y393D01*
X1Y392D02*
X8Y392D01*
X594Y392D02*
X603Y392D01*
X617Y392D02*
X628Y392D01*
X1154Y392D02*
X1165Y392D01*
X1193Y392D02*
X1203Y392D01*
X1223Y392D02*
X1233Y392D01*
X1568Y392D02*
X1575Y392D01*
X1Y391D02*
X8Y391D01*
X594Y391D02*
X603Y391D01*
X617Y391D02*
X628Y391D01*
X1155Y391D02*
X1165Y391D01*
X1193Y391D02*
X1203Y391D01*
X1223Y391D02*
X1233Y391D01*
X1568Y391D02*
X1575Y391D01*
X1Y390D02*
X8Y390D01*
X594Y390D02*
X603Y390D01*
X618Y390D02*
X629Y390D01*
X1156Y390D02*
X1165Y390D01*
X1194Y390D02*
X1204Y390D01*
X1223Y390D02*
X1233Y390D01*
X1568Y390D02*
X1575Y390D01*
X1Y389D02*
X8Y389D01*
X594Y389D02*
X603Y389D01*
X618Y389D02*
X629Y389D01*
X1156Y389D02*
X1165Y389D01*
X1194Y389D02*
X1204Y389D01*
X1222Y389D02*
X1232Y389D01*
X1568Y389D02*
X1575Y389D01*
X1Y388D02*
X8Y388D01*
X594Y388D02*
X603Y388D01*
X619Y388D02*
X630Y388D01*
X939Y388D02*
X941Y388D01*
X1156Y388D02*
X1165Y388D01*
X1194Y388D02*
X1204Y388D01*
X1222Y388D02*
X1232Y388D01*
X1568Y388D02*
X1575Y388D01*
X1Y387D02*
X8Y387D01*
X594Y387D02*
X603Y387D01*
X620Y387D02*
X630Y387D01*
X937Y387D02*
X943Y387D01*
X1156Y387D02*
X1165Y387D01*
X1195Y387D02*
X1205Y387D01*
X1221Y387D02*
X1231Y387D01*
X1568Y387D02*
X1575Y387D01*
X1Y386D02*
X8Y386D01*
X594Y386D02*
X603Y386D01*
X620Y386D02*
X631Y386D01*
X936Y386D02*
X944Y386D01*
X1156Y386D02*
X1165Y386D01*
X1195Y386D02*
X1205Y386D01*
X1221Y386D02*
X1231Y386D01*
X1568Y386D02*
X1575Y386D01*
X1Y385D02*
X8Y385D01*
X594Y385D02*
X603Y385D01*
X621Y385D02*
X632Y385D01*
X936Y385D02*
X944Y385D01*
X1156Y385D02*
X1165Y385D01*
X1196Y385D02*
X1206Y385D01*
X1220Y385D02*
X1230Y385D01*
X1568Y385D02*
X1575Y385D01*
X1Y384D02*
X8Y384D01*
X594Y384D02*
X603Y384D01*
X621Y384D02*
X632Y384D01*
X936Y384D02*
X944Y384D01*
X1156Y384D02*
X1165Y384D01*
X1196Y384D02*
X1206Y384D01*
X1220Y384D02*
X1230Y384D01*
X1568Y384D02*
X1575Y384D01*
X1Y383D02*
X8Y383D01*
X594Y383D02*
X603Y383D01*
X622Y383D02*
X633Y383D01*
X936Y383D02*
X944Y383D01*
X1156Y383D02*
X1165Y383D01*
X1197Y383D02*
X1207Y383D01*
X1219Y383D02*
X1229Y383D01*
X1568Y383D02*
X1575Y383D01*
X1Y382D02*
X8Y382D01*
X594Y382D02*
X603Y382D01*
X623Y382D02*
X633Y382D01*
X937Y382D02*
X944Y382D01*
X1156Y382D02*
X1165Y382D01*
X1197Y382D02*
X1207Y382D01*
X1219Y382D02*
X1229Y382D01*
X1568Y382D02*
X1575Y382D01*
X1Y381D02*
X8Y381D01*
X594Y381D02*
X603Y381D01*
X623Y381D02*
X634Y381D01*
X938Y381D02*
X944Y381D01*
X1156Y381D02*
X1165Y381D01*
X1198Y381D02*
X1208Y381D01*
X1219Y381D02*
X1229Y381D01*
X1568Y381D02*
X1575Y381D01*
X1Y380D02*
X8Y380D01*
X594Y380D02*
X603Y380D01*
X624Y380D02*
X635Y380D01*
X938Y380D02*
X944Y380D01*
X1156Y380D02*
X1165Y380D01*
X1198Y380D02*
X1208Y380D01*
X1218Y380D02*
X1228Y380D01*
X1568Y380D02*
X1575Y380D01*
X1Y379D02*
X8Y379D01*
X594Y379D02*
X603Y379D01*
X624Y379D02*
X635Y379D01*
X938Y379D02*
X944Y379D01*
X1156Y379D02*
X1165Y379D01*
X1198Y379D02*
X1208Y379D01*
X1218Y379D02*
X1228Y379D01*
X1568Y379D02*
X1575Y379D01*
X1Y378D02*
X8Y378D01*
X594Y378D02*
X603Y378D01*
X625Y378D02*
X636Y378D01*
X938Y378D02*
X944Y378D01*
X1156Y378D02*
X1165Y378D01*
X1199Y378D02*
X1209Y378D01*
X1217Y378D02*
X1227Y378D01*
X1568Y378D02*
X1575Y378D01*
X1Y377D02*
X8Y377D01*
X594Y377D02*
X603Y377D01*
X625Y377D02*
X636Y377D01*
X938Y377D02*
X944Y377D01*
X1156Y377D02*
X1165Y377D01*
X1199Y377D02*
X1209Y377D01*
X1217Y377D02*
X1227Y377D01*
X1568Y377D02*
X1575Y377D01*
X1Y376D02*
X8Y376D01*
X594Y376D02*
X603Y376D01*
X626Y376D02*
X637Y376D01*
X938Y376D02*
X944Y376D01*
X1156Y376D02*
X1165Y376D01*
X1200Y376D02*
X1210Y376D01*
X1216Y376D02*
X1226Y376D01*
X1568Y376D02*
X1575Y376D01*
X1Y375D02*
X8Y375D01*
X594Y375D02*
X603Y375D01*
X627Y375D02*
X637Y375D01*
X938Y375D02*
X944Y375D01*
X1156Y375D02*
X1165Y375D01*
X1200Y375D02*
X1210Y375D01*
X1216Y375D02*
X1226Y375D01*
X1568Y375D02*
X1575Y375D01*
X1Y374D02*
X8Y374D01*
X594Y374D02*
X603Y374D01*
X627Y374D02*
X638Y374D01*
X894Y374D02*
X913Y374D01*
X938Y374D02*
X944Y374D01*
X1156Y374D02*
X1165Y374D01*
X1201Y374D02*
X1211Y374D01*
X1216Y374D02*
X1226Y374D01*
X1568Y374D02*
X1575Y374D01*
X1Y373D02*
X8Y373D01*
X594Y373D02*
X603Y373D01*
X628Y373D02*
X639Y373D01*
X892Y373D02*
X914Y373D01*
X938Y373D02*
X944Y373D01*
X1156Y373D02*
X1165Y373D01*
X1201Y373D02*
X1211Y373D01*
X1215Y373D02*
X1225Y373D01*
X1568Y373D02*
X1575Y373D01*
X1Y372D02*
X8Y372D01*
X594Y372D02*
X603Y372D01*
X628Y372D02*
X639Y372D01*
X891Y372D02*
X915Y372D01*
X938Y372D02*
X944Y372D01*
X1156Y372D02*
X1165Y372D01*
X1201Y372D02*
X1211Y372D01*
X1215Y372D02*
X1225Y372D01*
X1568Y372D02*
X1575Y372D01*
X1Y371D02*
X8Y371D01*
X594Y371D02*
X603Y371D01*
X629Y371D02*
X640Y371D01*
X891Y371D02*
X916Y371D01*
X938Y371D02*
X944Y371D01*
X1156Y371D02*
X1165Y371D01*
X1202Y371D02*
X1212Y371D01*
X1214Y371D02*
X1224Y371D01*
X1568Y371D02*
X1575Y371D01*
X1Y370D02*
X8Y370D01*
X594Y370D02*
X603Y370D01*
X630Y370D02*
X640Y370D01*
X891Y370D02*
X917Y370D01*
X938Y370D02*
X944Y370D01*
X1156Y370D02*
X1165Y370D01*
X1202Y370D02*
X1224Y370D01*
X1568Y370D02*
X1575Y370D01*
X1Y369D02*
X8Y369D01*
X594Y369D02*
X603Y369D01*
X630Y369D02*
X641Y369D01*
X892Y369D02*
X917Y369D01*
X938Y369D02*
X944Y369D01*
X1121Y369D02*
X1165Y369D01*
X1203Y369D02*
X1223Y369D01*
X1568Y369D02*
X1575Y369D01*
X1Y368D02*
X8Y368D01*
X594Y368D02*
X603Y368D01*
X631Y368D02*
X642Y368D01*
X893Y368D02*
X918Y368D01*
X938Y368D02*
X944Y368D01*
X1118Y368D02*
X1165Y368D01*
X1203Y368D02*
X1223Y368D01*
X1568Y368D02*
X1575Y368D01*
X1Y367D02*
X8Y367D01*
X594Y367D02*
X603Y367D01*
X631Y367D02*
X642Y367D01*
X911Y367D02*
X919Y367D01*
X938Y367D02*
X944Y367D01*
X1117Y367D02*
X1165Y367D01*
X1204Y367D02*
X1222Y367D01*
X1568Y367D02*
X1575Y367D01*
X1Y366D02*
X8Y366D01*
X594Y366D02*
X603Y366D01*
X632Y366D02*
X643Y366D01*
X912Y366D02*
X920Y366D01*
X938Y366D02*
X944Y366D01*
X1117Y366D02*
X1165Y366D01*
X1204Y366D02*
X1222Y366D01*
X1568Y366D02*
X1575Y366D01*
X1Y365D02*
X8Y365D01*
X594Y365D02*
X603Y365D01*
X632Y365D02*
X643Y365D01*
X913Y365D02*
X921Y365D01*
X938Y365D02*
X944Y365D01*
X1117Y365D02*
X1164Y365D01*
X1205Y365D02*
X1222Y365D01*
X1568Y365D02*
X1575Y365D01*
X1Y364D02*
X8Y364D01*
X594Y364D02*
X603Y364D01*
X633Y364D02*
X643Y364D01*
X914Y364D02*
X922Y364D01*
X938Y364D02*
X944Y364D01*
X1116Y364D02*
X1164Y364D01*
X1205Y364D02*
X1221Y364D01*
X1568Y364D02*
X1575Y364D01*
X1Y363D02*
X8Y363D01*
X594Y363D02*
X603Y363D01*
X634Y363D02*
X643Y363D01*
X914Y363D02*
X923Y363D01*
X938Y363D02*
X944Y363D01*
X1117Y363D02*
X1163Y363D01*
X1205Y363D02*
X1221Y363D01*
X1568Y363D02*
X1575Y363D01*
X1Y362D02*
X8Y362D01*
X595Y362D02*
X603Y362D01*
X634Y362D02*
X642Y362D01*
X915Y362D02*
X923Y362D01*
X938Y362D02*
X944Y362D01*
X1117Y362D02*
X1162Y362D01*
X1206Y362D02*
X1220Y362D01*
X1568Y362D02*
X1575Y362D01*
X1Y361D02*
X8Y361D01*
X595Y361D02*
X602Y361D01*
X635Y361D02*
X642Y361D01*
X916Y361D02*
X924Y361D01*
X938Y361D02*
X944Y361D01*
X1118Y361D02*
X1161Y361D01*
X1206Y361D02*
X1220Y361D01*
X1568Y361D02*
X1575Y361D01*
X1Y360D02*
X8Y360D01*
X596Y360D02*
X601Y360D01*
X636Y360D02*
X641Y360D01*
X917Y360D02*
X944Y360D01*
X1119Y360D02*
X1159Y360D01*
X1207Y360D02*
X1219Y360D01*
X1568Y360D02*
X1575Y360D01*
X1Y359D02*
X8Y359D01*
X918Y359D02*
X944Y359D01*
X1568Y359D02*
X1575Y359D01*
X1Y358D02*
X8Y358D01*
X919Y358D02*
X944Y358D01*
X1568Y358D02*
X1575Y358D01*
X1Y357D02*
X8Y357D01*
X919Y357D02*
X944Y357D01*
X1568Y357D02*
X1575Y357D01*
X1Y356D02*
X8Y356D01*
X920Y356D02*
X944Y356D01*
X1568Y356D02*
X1575Y356D01*
X1Y355D02*
X8Y355D01*
X921Y355D02*
X944Y355D01*
X1568Y355D02*
X1575Y355D01*
X1Y354D02*
X8Y354D01*
X922Y354D02*
X944Y354D01*
X1568Y354D02*
X1575Y354D01*
X1Y353D02*
X8Y353D01*
X1568Y353D02*
X1575Y353D01*
X1Y352D02*
X8Y352D01*
X1568Y352D02*
X1575Y352D01*
X1Y351D02*
X8Y351D01*
X1568Y351D02*
X1575Y351D01*
X1Y350D02*
X8Y350D01*
X1568Y350D02*
X1575Y350D01*
X1Y349D02*
X8Y349D01*
X1568Y349D02*
X1575Y349D01*
X1Y348D02*
X8Y348D01*
X1568Y348D02*
X1575Y348D01*
X1Y347D02*
X8Y347D01*
X1568Y347D02*
X1575Y347D01*
X1Y346D02*
X8Y346D01*
X1568Y346D02*
X1575Y346D01*
X1Y345D02*
X8Y345D01*
X1568Y345D02*
X1575Y345D01*
X1Y344D02*
X8Y344D01*
X1568Y344D02*
X1575Y344D01*
X1Y343D02*
X8Y343D01*
X1568Y343D02*
X1575Y343D01*
X1Y342D02*
X8Y342D01*
X1568Y342D02*
X1575Y342D01*
X1Y341D02*
X8Y341D01*
X1568Y341D02*
X1575Y341D01*
X1Y340D02*
X8Y340D01*
X1568Y340D02*
X1575Y340D01*
X1Y339D02*
X8Y339D01*
X1568Y339D02*
X1575Y339D01*
X1Y338D02*
X8Y338D01*
X1568Y338D02*
X1575Y338D01*
X1Y337D02*
X8Y337D01*
X893Y337D02*
X943Y337D01*
X1568Y337D02*
X1575Y337D01*
X1Y336D02*
X8Y336D01*
X892Y336D02*
X944Y336D01*
X1568Y336D02*
X1575Y336D01*
X1Y335D02*
X8Y335D01*
X891Y335D02*
X944Y335D01*
X1228Y335D02*
X1232Y335D01*
X1568Y335D02*
X1575Y335D01*
X1Y334D02*
X8Y334D01*
X891Y334D02*
X944Y334D01*
X1227Y334D02*
X1233Y334D01*
X1568Y334D02*
X1575Y334D01*
X1Y333D02*
X8Y333D01*
X892Y333D02*
X944Y333D01*
X1226Y333D02*
X1234Y333D01*
X1568Y333D02*
X1575Y333D01*
X1Y332D02*
X8Y332D01*
X892Y332D02*
X943Y332D01*
X1226Y332D02*
X1234Y332D01*
X1568Y332D02*
X1575Y332D01*
X1Y331D02*
X8Y331D01*
X894Y331D02*
X942Y331D01*
X1226Y331D02*
X1235Y331D01*
X1568Y331D02*
X1575Y331D01*
X1Y330D02*
X8Y330D01*
X906Y330D02*
X914Y330D01*
X1226Y330D02*
X1235Y330D01*
X1568Y330D02*
X1575Y330D01*
X1Y329D02*
X8Y329D01*
X597Y329D02*
X630Y329D01*
X906Y329D02*
X915Y329D01*
X1226Y329D02*
X1235Y329D01*
X1568Y329D02*
X1575Y329D01*
X1Y328D02*
X8Y328D01*
X597Y328D02*
X633Y328D01*
X907Y328D02*
X916Y328D01*
X1226Y328D02*
X1235Y328D01*
X1568Y328D02*
X1575Y328D01*
X1Y327D02*
X8Y327D01*
X597Y327D02*
X635Y327D01*
X907Y327D02*
X916Y327D01*
X1226Y327D02*
X1235Y327D01*
X1568Y327D02*
X1575Y327D01*
X1Y326D02*
X8Y326D01*
X597Y326D02*
X637Y326D01*
X907Y326D02*
X917Y326D01*
X1226Y326D02*
X1235Y326D01*
X1568Y326D02*
X1575Y326D01*
X1Y325D02*
X8Y325D01*
X597Y325D02*
X638Y325D01*
X906Y325D02*
X918Y325D01*
X1226Y325D02*
X1235Y325D01*
X1568Y325D02*
X1575Y325D01*
X1Y324D02*
X8Y324D01*
X597Y324D02*
X639Y324D01*
X905Y324D02*
X919Y324D01*
X1226Y324D02*
X1235Y324D01*
X1568Y324D02*
X1575Y324D01*
X1Y323D02*
X8Y323D01*
X597Y323D02*
X640Y323D01*
X904Y323D02*
X920Y323D01*
X1226Y323D02*
X1235Y323D01*
X1568Y323D02*
X1575Y323D01*
X1Y322D02*
X8Y322D01*
X597Y322D02*
X641Y322D01*
X903Y322D02*
X921Y322D01*
X1226Y322D02*
X1235Y322D01*
X1568Y322D02*
X1575Y322D01*
X1Y321D02*
X8Y321D01*
X597Y321D02*
X642Y321D01*
X902Y321D02*
X910Y321D01*
X913Y321D02*
X922Y321D01*
X1226Y321D02*
X1235Y321D01*
X1568Y321D02*
X1575Y321D01*
X1Y320D02*
X8Y320D01*
X597Y320D02*
X642Y320D01*
X901Y320D02*
X910Y320D01*
X914Y320D02*
X922Y320D01*
X1226Y320D02*
X1235Y320D01*
X1568Y320D02*
X1575Y320D01*
X1Y319D02*
X8Y319D01*
X597Y319D02*
X606Y319D01*
X629Y319D02*
X643Y319D01*
X901Y319D02*
X909Y319D01*
X915Y319D02*
X923Y319D01*
X1226Y319D02*
X1235Y319D01*
X1568Y319D02*
X1575Y319D01*
X1Y318D02*
X8Y318D01*
X597Y318D02*
X606Y318D01*
X632Y318D02*
X644Y318D01*
X900Y318D02*
X908Y318D01*
X916Y318D02*
X924Y318D01*
X1226Y318D02*
X1235Y318D01*
X1568Y318D02*
X1575Y318D01*
X1Y317D02*
X8Y317D01*
X597Y317D02*
X606Y317D01*
X633Y317D02*
X644Y317D01*
X899Y317D02*
X907Y317D01*
X917Y317D02*
X925Y317D01*
X1226Y317D02*
X1235Y317D01*
X1568Y317D02*
X1575Y317D01*
X1Y316D02*
X8Y316D01*
X597Y316D02*
X606Y316D01*
X634Y316D02*
X644Y316D01*
X898Y316D02*
X906Y316D01*
X918Y316D02*
X926Y316D01*
X1226Y316D02*
X1235Y316D01*
X1568Y316D02*
X1575Y316D01*
X1Y315D02*
X8Y315D01*
X597Y315D02*
X606Y315D01*
X635Y315D02*
X645Y315D01*
X897Y315D02*
X905Y315D01*
X918Y315D02*
X927Y315D01*
X1226Y315D02*
X1235Y315D01*
X1568Y315D02*
X1575Y315D01*
X1Y314D02*
X8Y314D01*
X597Y314D02*
X606Y314D01*
X635Y314D02*
X645Y314D01*
X896Y314D02*
X905Y314D01*
X919Y314D02*
X928Y314D01*
X1056Y314D02*
X1070Y314D01*
X1084Y314D02*
X1087Y314D01*
X1116Y314D02*
X1120Y314D01*
X1137Y314D02*
X1150Y314D01*
X1200Y314D02*
X1215Y314D01*
X1226Y314D02*
X1235Y314D01*
X1568Y314D02*
X1575Y314D01*
X1Y313D02*
X8Y313D01*
X597Y313D02*
X606Y313D01*
X636Y313D02*
X645Y313D01*
X895Y313D02*
X904Y313D01*
X920Y313D02*
X928Y313D01*
X1053Y313D02*
X1073Y313D01*
X1082Y313D02*
X1089Y313D01*
X1115Y313D02*
X1121Y313D01*
X1135Y313D02*
X1153Y313D01*
X1198Y313D02*
X1217Y313D01*
X1226Y313D02*
X1235Y313D01*
X1568Y313D02*
X1575Y313D01*
X1Y312D02*
X8Y312D01*
X597Y312D02*
X606Y312D01*
X636Y312D02*
X645Y312D01*
X895Y312D02*
X903Y312D01*
X921Y312D02*
X929Y312D01*
X1052Y312D02*
X1075Y312D01*
X1082Y312D02*
X1089Y312D01*
X1114Y312D02*
X1122Y312D01*
X1133Y312D02*
X1154Y312D01*
X1196Y312D02*
X1219Y312D01*
X1226Y312D02*
X1235Y312D01*
X1568Y312D02*
X1575Y312D01*
X1Y311D02*
X8Y311D01*
X597Y311D02*
X606Y311D01*
X636Y311D02*
X645Y311D01*
X894Y311D02*
X902Y311D01*
X922Y311D02*
X930Y311D01*
X1050Y311D02*
X1076Y311D01*
X1081Y311D02*
X1090Y311D01*
X1114Y311D02*
X1122Y311D01*
X1131Y311D02*
X1156Y311D01*
X1195Y311D02*
X1221Y311D01*
X1226Y311D02*
X1235Y311D01*
X1568Y311D02*
X1575Y311D01*
X1Y310D02*
X8Y310D01*
X597Y310D02*
X606Y310D01*
X636Y310D02*
X646Y310D01*
X893Y310D02*
X901Y310D01*
X923Y310D02*
X930Y310D01*
X1049Y310D02*
X1077Y310D01*
X1081Y310D02*
X1090Y310D01*
X1114Y310D02*
X1123Y310D01*
X1130Y310D02*
X1157Y310D01*
X1194Y310D02*
X1222Y310D01*
X1226Y310D02*
X1235Y310D01*
X1568Y310D02*
X1575Y310D01*
X1Y309D02*
X8Y309D01*
X597Y309D02*
X606Y309D01*
X637Y309D02*
X646Y309D01*
X892Y309D02*
X900Y309D01*
X924Y309D02*
X929Y309D01*
X1048Y309D02*
X1078Y309D01*
X1081Y309D02*
X1090Y309D01*
X1114Y309D02*
X1123Y309D01*
X1128Y309D02*
X1158Y309D01*
X1192Y309D02*
X1223Y309D01*
X1226Y309D02*
X1235Y309D01*
X1568Y309D02*
X1575Y309D01*
X1Y308D02*
X8Y308D01*
X597Y308D02*
X606Y308D01*
X637Y308D02*
X646Y308D01*
X891Y308D02*
X899Y308D01*
X924Y308D02*
X929Y308D01*
X1047Y308D02*
X1090Y308D01*
X1114Y308D02*
X1123Y308D01*
X1127Y308D02*
X1158Y308D01*
X1191Y308D02*
X1235Y308D01*
X1568Y308D02*
X1575Y308D01*
X1Y307D02*
X8Y307D01*
X597Y307D02*
X606Y307D01*
X637Y307D02*
X646Y307D01*
X891Y307D02*
X899Y307D01*
X926Y307D02*
X927Y307D01*
X1046Y307D02*
X1090Y307D01*
X1114Y307D02*
X1123Y307D01*
X1125Y307D02*
X1159Y307D01*
X1190Y307D02*
X1235Y307D01*
X1568Y307D02*
X1575Y307D01*
X1Y306D02*
X8Y306D01*
X597Y306D02*
X606Y306D01*
X637Y306D02*
X646Y306D01*
X891Y306D02*
X898Y306D01*
X1045Y306D02*
X1090Y306D01*
X1114Y306D02*
X1160Y306D01*
X1189Y306D02*
X1235Y306D01*
X1568Y306D02*
X1575Y306D01*
X1Y305D02*
X8Y305D01*
X597Y305D02*
X606Y305D01*
X636Y305D02*
X646Y305D01*
X892Y305D02*
X897Y305D01*
X1044Y305D02*
X1090Y305D01*
X1114Y305D02*
X1160Y305D01*
X1189Y305D02*
X1235Y305D01*
X1568Y305D02*
X1575Y305D01*
X1Y304D02*
X8Y304D01*
X146Y304D02*
X162Y304D01*
X180Y304D02*
X189Y304D01*
X209Y304D02*
X212Y304D01*
X231Y304D02*
X250Y304D01*
X597Y304D02*
X606Y304D01*
X636Y304D02*
X646Y304D01*
X893Y304D02*
X896Y304D01*
X1043Y304D02*
X1057Y304D01*
X1069Y304D02*
X1090Y304D01*
X1114Y304D02*
X1138Y304D01*
X1149Y304D02*
X1160Y304D01*
X1188Y304D02*
X1201Y304D01*
X1214Y304D02*
X1235Y304D01*
X1568Y304D02*
X1575Y304D01*
X1Y303D02*
X8Y303D01*
X144Y303D02*
X163Y303D01*
X180Y303D02*
X189Y303D01*
X208Y303D02*
X213Y303D01*
X231Y303D02*
X251Y303D01*
X597Y303D02*
X606Y303D01*
X636Y303D02*
X645Y303D01*
X1043Y303D02*
X1055Y303D01*
X1071Y303D02*
X1090Y303D01*
X1114Y303D02*
X1137Y303D01*
X1150Y303D02*
X1161Y303D01*
X1187Y303D02*
X1200Y303D01*
X1215Y303D02*
X1235Y303D01*
X1568Y303D02*
X1575Y303D01*
X1Y302D02*
X8Y302D01*
X143Y302D02*
X163Y302D01*
X180Y302D02*
X189Y302D01*
X208Y302D02*
X213Y302D01*
X230Y302D02*
X253Y302D01*
X597Y302D02*
X606Y302D01*
X636Y302D02*
X645Y302D01*
X1042Y302D02*
X1054Y302D01*
X1072Y302D02*
X1090Y302D01*
X1114Y302D02*
X1135Y302D01*
X1151Y302D02*
X1161Y302D01*
X1187Y302D02*
X1199Y302D01*
X1217Y302D02*
X1235Y302D01*
X1568Y302D02*
X1575Y302D01*
X1Y301D02*
X8Y301D01*
X142Y301D02*
X163Y301D01*
X180Y301D02*
X190Y301D01*
X208Y301D02*
X214Y301D01*
X230Y301D02*
X254Y301D01*
X597Y301D02*
X606Y301D01*
X635Y301D02*
X645Y301D01*
X1042Y301D02*
X1053Y301D01*
X1073Y301D02*
X1090Y301D01*
X1114Y301D02*
X1134Y301D01*
X1152Y301D02*
X1161Y301D01*
X1186Y301D02*
X1198Y301D01*
X1218Y301D02*
X1235Y301D01*
X1568Y301D02*
X1575Y301D01*
X1Y300D02*
X8Y300D01*
X141Y300D02*
X163Y300D01*
X180Y300D02*
X190Y300D01*
X208Y300D02*
X214Y300D01*
X231Y300D02*
X254Y300D01*
X597Y300D02*
X606Y300D01*
X635Y300D02*
X645Y300D01*
X1042Y300D02*
X1052Y300D01*
X1074Y300D02*
X1090Y300D01*
X1114Y300D02*
X1132Y300D01*
X1152Y300D02*
X1161Y300D01*
X1186Y300D02*
X1197Y300D01*
X1219Y300D02*
X1235Y300D01*
X1568Y300D02*
X1575Y300D01*
X1Y299D02*
X8Y299D01*
X141Y299D02*
X162Y299D01*
X180Y299D02*
X191Y299D01*
X208Y299D02*
X214Y299D01*
X231Y299D02*
X255Y299D01*
X597Y299D02*
X606Y299D01*
X634Y299D02*
X644Y299D01*
X983Y299D02*
X991Y299D01*
X1042Y299D02*
X1051Y299D01*
X1076Y299D02*
X1090Y299D01*
X1114Y299D02*
X1130Y299D01*
X1152Y299D02*
X1161Y299D01*
X1186Y299D02*
X1196Y299D01*
X1220Y299D02*
X1235Y299D01*
X1568Y299D02*
X1575Y299D01*
X1Y298D02*
X8Y298D01*
X140Y298D02*
X160Y298D01*
X180Y298D02*
X191Y298D01*
X208Y298D02*
X214Y298D01*
X234Y298D02*
X255Y298D01*
X597Y298D02*
X606Y298D01*
X633Y298D02*
X644Y298D01*
X983Y298D02*
X992Y298D01*
X1041Y298D02*
X1051Y298D01*
X1077Y298D02*
X1090Y298D01*
X1114Y298D02*
X1129Y298D01*
X1152Y298D02*
X1161Y298D01*
X1186Y298D02*
X1195Y298D01*
X1221Y298D02*
X1235Y298D01*
X1568Y298D02*
X1575Y298D01*
X1Y297D02*
X8Y297D01*
X139Y297D02*
X147Y297D01*
X180Y297D02*
X192Y297D01*
X208Y297D02*
X214Y297D01*
X237Y297D02*
X243Y297D01*
X249Y297D02*
X256Y297D01*
X597Y297D02*
X606Y297D01*
X631Y297D02*
X644Y297D01*
X983Y297D02*
X992Y297D01*
X1041Y297D02*
X1050Y297D01*
X1078Y297D02*
X1090Y297D01*
X1114Y297D02*
X1127Y297D01*
X1152Y297D02*
X1161Y297D01*
X1186Y297D02*
X1195Y297D01*
X1222Y297D02*
X1235Y297D01*
X1568Y297D02*
X1575Y297D01*
X1Y296D02*
X8Y296D01*
X138Y296D02*
X146Y296D01*
X180Y296D02*
X192Y296D01*
X208Y296D02*
X214Y296D01*
X237Y296D02*
X243Y296D01*
X250Y296D02*
X256Y296D01*
X597Y296D02*
X606Y296D01*
X629Y296D02*
X643Y296D01*
X983Y296D02*
X992Y296D01*
X1041Y296D02*
X1050Y296D01*
X1079Y296D02*
X1090Y296D01*
X1114Y296D02*
X1126Y296D01*
X1152Y296D02*
X1161Y296D01*
X1186Y296D02*
X1195Y296D01*
X1224Y296D02*
X1235Y296D01*
X1568Y296D02*
X1575Y296D01*
X1Y295D02*
X8Y295D01*
X138Y295D02*
X145Y295D01*
X180Y295D02*
X193Y295D01*
X208Y295D02*
X214Y295D01*
X237Y295D02*
X243Y295D01*
X250Y295D02*
X257Y295D01*
X597Y295D02*
X642Y295D01*
X983Y295D02*
X992Y295D01*
X1041Y295D02*
X1050Y295D01*
X1080Y295D02*
X1090Y295D01*
X1114Y295D02*
X1124Y295D01*
X1152Y295D02*
X1161Y295D01*
X1186Y295D02*
X1195Y295D01*
X1224Y295D02*
X1235Y295D01*
X1568Y295D02*
X1575Y295D01*
X1Y294D02*
X8Y294D01*
X137Y294D02*
X145Y294D01*
X180Y294D02*
X193Y294D01*
X208Y294D02*
X214Y294D01*
X237Y294D02*
X243Y294D01*
X251Y294D02*
X258Y294D01*
X597Y294D02*
X642Y294D01*
X983Y294D02*
X992Y294D01*
X1041Y294D02*
X1050Y294D01*
X1081Y294D02*
X1090Y294D01*
X1114Y294D02*
X1123Y294D01*
X1152Y294D02*
X1161Y294D01*
X1186Y294D02*
X1195Y294D01*
X1225Y294D02*
X1235Y294D01*
X1568Y294D02*
X1575Y294D01*
X1Y293D02*
X8Y293D01*
X136Y293D02*
X144Y293D01*
X180Y293D02*
X193Y293D01*
X208Y293D02*
X214Y293D01*
X237Y293D02*
X243Y293D01*
X251Y293D02*
X258Y293D01*
X597Y293D02*
X641Y293D01*
X983Y293D02*
X992Y293D01*
X1041Y293D02*
X1050Y293D01*
X1081Y293D02*
X1090Y293D01*
X1114Y293D02*
X1123Y293D01*
X1152Y293D02*
X1161Y293D01*
X1186Y293D02*
X1195Y293D01*
X1225Y293D02*
X1235Y293D01*
X1568Y293D02*
X1575Y293D01*
X1Y292D02*
X8Y292D01*
X135Y292D02*
X143Y292D01*
X180Y292D02*
X194Y292D01*
X208Y292D02*
X214Y292D01*
X237Y292D02*
X243Y292D01*
X252Y292D02*
X259Y292D01*
X597Y292D02*
X640Y292D01*
X983Y292D02*
X992Y292D01*
X1041Y292D02*
X1050Y292D01*
X1081Y292D02*
X1090Y292D01*
X1114Y292D02*
X1123Y292D01*
X1152Y292D02*
X1161Y292D01*
X1186Y292D02*
X1195Y292D01*
X1226Y292D02*
X1235Y292D01*
X1568Y292D02*
X1575Y292D01*
X1Y291D02*
X8Y291D01*
X134Y291D02*
X142Y291D01*
X180Y291D02*
X186Y291D01*
X188Y291D02*
X194Y291D01*
X208Y291D02*
X214Y291D01*
X237Y291D02*
X243Y291D01*
X252Y291D02*
X259Y291D01*
X597Y291D02*
X639Y291D01*
X983Y291D02*
X992Y291D01*
X1041Y291D02*
X1050Y291D01*
X1081Y291D02*
X1090Y291D01*
X1114Y291D02*
X1123Y291D01*
X1152Y291D02*
X1161Y291D01*
X1186Y291D02*
X1195Y291D01*
X1226Y291D02*
X1235Y291D01*
X1568Y291D02*
X1575Y291D01*
X1Y290D02*
X8Y290D01*
X134Y290D02*
X142Y290D01*
X180Y290D02*
X186Y290D01*
X188Y290D02*
X195Y290D01*
X208Y290D02*
X214Y290D01*
X237Y290D02*
X243Y290D01*
X253Y290D02*
X260Y290D01*
X597Y290D02*
X639Y290D01*
X983Y290D02*
X992Y290D01*
X1041Y290D02*
X1050Y290D01*
X1081Y290D02*
X1090Y290D01*
X1114Y290D02*
X1123Y290D01*
X1152Y290D02*
X1161Y290D01*
X1186Y290D02*
X1195Y290D01*
X1226Y290D02*
X1235Y290D01*
X1568Y290D02*
X1575Y290D01*
X1Y289D02*
X8Y289D01*
X133Y289D02*
X141Y289D01*
X180Y289D02*
X186Y289D01*
X188Y289D02*
X195Y289D01*
X208Y289D02*
X214Y289D01*
X237Y289D02*
X243Y289D01*
X253Y289D02*
X260Y289D01*
X597Y289D02*
X640Y289D01*
X983Y289D02*
X992Y289D01*
X1041Y289D02*
X1050Y289D01*
X1081Y289D02*
X1090Y289D01*
X1114Y289D02*
X1123Y289D01*
X1152Y289D02*
X1161Y289D01*
X1186Y289D02*
X1195Y289D01*
X1226Y289D02*
X1235Y289D01*
X1568Y289D02*
X1575Y289D01*
X1Y288D02*
X8Y288D01*
X132Y288D02*
X140Y288D01*
X180Y288D02*
X186Y288D01*
X189Y288D02*
X196Y288D01*
X208Y288D02*
X214Y288D01*
X237Y288D02*
X243Y288D01*
X254Y288D02*
X261Y288D01*
X597Y288D02*
X641Y288D01*
X983Y288D02*
X992Y288D01*
X1041Y288D02*
X1050Y288D01*
X1081Y288D02*
X1090Y288D01*
X1114Y288D02*
X1123Y288D01*
X1152Y288D02*
X1161Y288D01*
X1186Y288D02*
X1195Y288D01*
X1226Y288D02*
X1235Y288D01*
X1568Y288D02*
X1575Y288D01*
X1Y287D02*
X8Y287D01*
X132Y287D02*
X139Y287D01*
X180Y287D02*
X186Y287D01*
X189Y287D02*
X196Y287D01*
X208Y287D02*
X214Y287D01*
X237Y287D02*
X243Y287D01*
X254Y287D02*
X261Y287D01*
X597Y287D02*
X642Y287D01*
X983Y287D02*
X992Y287D01*
X1041Y287D02*
X1050Y287D01*
X1081Y287D02*
X1090Y287D01*
X1114Y287D02*
X1123Y287D01*
X1152Y287D02*
X1162Y287D01*
X1186Y287D02*
X1195Y287D01*
X1226Y287D02*
X1235Y287D01*
X1568Y287D02*
X1575Y287D01*
X1Y286D02*
X8Y286D01*
X131Y286D02*
X138Y286D01*
X180Y286D02*
X186Y286D01*
X190Y286D02*
X197Y286D01*
X208Y286D02*
X214Y286D01*
X237Y286D02*
X243Y286D01*
X255Y286D02*
X262Y286D01*
X597Y286D02*
X642Y286D01*
X983Y286D02*
X992Y286D01*
X1041Y286D02*
X1050Y286D01*
X1081Y286D02*
X1090Y286D01*
X1114Y286D02*
X1123Y286D01*
X1152Y286D02*
X1162Y286D01*
X1186Y286D02*
X1195Y286D01*
X1226Y286D02*
X1235Y286D01*
X1568Y286D02*
X1575Y286D01*
X1Y285D02*
X8Y285D01*
X131Y285D02*
X138Y285D01*
X180Y285D02*
X186Y285D01*
X190Y285D02*
X197Y285D01*
X208Y285D02*
X214Y285D01*
X237Y285D02*
X243Y285D01*
X255Y285D02*
X262Y285D01*
X597Y285D02*
X606Y285D01*
X630Y285D02*
X643Y285D01*
X983Y285D02*
X992Y285D01*
X1041Y285D02*
X1050Y285D01*
X1081Y285D02*
X1090Y285D01*
X1114Y285D02*
X1123Y285D01*
X1152Y285D02*
X1162Y285D01*
X1186Y285D02*
X1195Y285D01*
X1226Y285D02*
X1235Y285D01*
X1568Y285D02*
X1575Y285D01*
X1Y284D02*
X8Y284D01*
X130Y284D02*
X137Y284D01*
X180Y284D02*
X186Y284D01*
X191Y284D02*
X197Y284D01*
X208Y284D02*
X214Y284D01*
X237Y284D02*
X243Y284D01*
X256Y284D02*
X262Y284D01*
X597Y284D02*
X606Y284D01*
X632Y284D02*
X644Y284D01*
X983Y284D02*
X992Y284D01*
X1041Y284D02*
X1050Y284D01*
X1081Y284D02*
X1090Y284D01*
X1114Y284D02*
X1123Y284D01*
X1153Y284D02*
X1162Y284D01*
X1186Y284D02*
X1195Y284D01*
X1226Y284D02*
X1235Y284D01*
X1568Y284D02*
X1575Y284D01*
X1Y283D02*
X8Y283D01*
X130Y283D02*
X136Y283D01*
X180Y283D02*
X186Y283D01*
X191Y283D02*
X198Y283D01*
X208Y283D02*
X214Y283D01*
X237Y283D02*
X243Y283D01*
X256Y283D02*
X263Y283D01*
X597Y283D02*
X606Y283D01*
X633Y283D02*
X644Y283D01*
X983Y283D02*
X992Y283D01*
X1041Y283D02*
X1050Y283D01*
X1081Y283D02*
X1090Y283D01*
X1114Y283D02*
X1123Y283D01*
X1153Y283D02*
X1162Y283D01*
X1186Y283D02*
X1195Y283D01*
X1226Y283D02*
X1235Y283D01*
X1568Y283D02*
X1575Y283D01*
X1Y282D02*
X8Y282D01*
X130Y282D02*
X136Y282D01*
X180Y282D02*
X186Y282D01*
X192Y282D02*
X198Y282D01*
X208Y282D02*
X214Y282D01*
X237Y282D02*
X243Y282D01*
X257Y282D02*
X263Y282D01*
X597Y282D02*
X606Y282D01*
X634Y282D02*
X644Y282D01*
X983Y282D02*
X992Y282D01*
X1041Y282D02*
X1050Y282D01*
X1080Y282D02*
X1090Y282D01*
X1114Y282D02*
X1123Y282D01*
X1153Y282D02*
X1162Y282D01*
X1186Y282D02*
X1195Y282D01*
X1226Y282D02*
X1235Y282D01*
X1568Y282D02*
X1575Y282D01*
X1Y281D02*
X8Y281D01*
X130Y281D02*
X136Y281D01*
X180Y281D02*
X186Y281D01*
X192Y281D02*
X199Y281D01*
X208Y281D02*
X214Y281D01*
X237Y281D02*
X243Y281D01*
X257Y281D02*
X263Y281D01*
X597Y281D02*
X606Y281D01*
X635Y281D02*
X645Y281D01*
X983Y281D02*
X992Y281D01*
X1041Y281D02*
X1050Y281D01*
X1079Y281D02*
X1090Y281D01*
X1114Y281D02*
X1123Y281D01*
X1153Y281D02*
X1162Y281D01*
X1186Y281D02*
X1195Y281D01*
X1226Y281D02*
X1235Y281D01*
X1568Y281D02*
X1575Y281D01*
X1Y280D02*
X8Y280D01*
X130Y280D02*
X136Y280D01*
X180Y280D02*
X186Y280D01*
X192Y280D02*
X199Y280D01*
X208Y280D02*
X214Y280D01*
X237Y280D02*
X243Y280D01*
X257Y280D02*
X264Y280D01*
X597Y280D02*
X606Y280D01*
X635Y280D02*
X645Y280D01*
X983Y280D02*
X992Y280D01*
X1041Y280D02*
X1050Y280D01*
X1078Y280D02*
X1090Y280D01*
X1114Y280D02*
X1123Y280D01*
X1153Y280D02*
X1162Y280D01*
X1186Y280D02*
X1195Y280D01*
X1226Y280D02*
X1235Y280D01*
X1568Y280D02*
X1575Y280D01*
X1Y279D02*
X8Y279D01*
X130Y279D02*
X136Y279D01*
X180Y279D02*
X186Y279D01*
X193Y279D02*
X200Y279D01*
X208Y279D02*
X214Y279D01*
X237Y279D02*
X243Y279D01*
X258Y279D02*
X264Y279D01*
X597Y279D02*
X606Y279D01*
X636Y279D02*
X645Y279D01*
X983Y279D02*
X992Y279D01*
X1041Y279D02*
X1050Y279D01*
X1077Y279D02*
X1090Y279D01*
X1114Y279D02*
X1123Y279D01*
X1153Y279D02*
X1162Y279D01*
X1186Y279D02*
X1195Y279D01*
X1225Y279D02*
X1235Y279D01*
X1568Y279D02*
X1575Y279D01*
X1Y278D02*
X8Y278D01*
X130Y278D02*
X136Y278D01*
X180Y278D02*
X186Y278D01*
X193Y278D02*
X200Y278D01*
X208Y278D02*
X214Y278D01*
X237Y278D02*
X243Y278D01*
X258Y278D02*
X264Y278D01*
X597Y278D02*
X606Y278D01*
X636Y278D02*
X645Y278D01*
X983Y278D02*
X992Y278D01*
X1042Y278D02*
X1051Y278D01*
X1076Y278D02*
X1090Y278D01*
X1114Y278D02*
X1123Y278D01*
X1153Y278D02*
X1162Y278D01*
X1186Y278D02*
X1195Y278D01*
X1225Y278D02*
X1235Y278D01*
X1568Y278D02*
X1575Y278D01*
X1Y277D02*
X8Y277D01*
X130Y277D02*
X136Y277D01*
X180Y277D02*
X186Y277D01*
X194Y277D02*
X200Y277D01*
X208Y277D02*
X214Y277D01*
X237Y277D02*
X243Y277D01*
X258Y277D02*
X264Y277D01*
X597Y277D02*
X606Y277D01*
X636Y277D02*
X646Y277D01*
X983Y277D02*
X992Y277D01*
X1042Y277D02*
X1051Y277D01*
X1075Y277D02*
X1090Y277D01*
X1114Y277D02*
X1123Y277D01*
X1153Y277D02*
X1162Y277D01*
X1186Y277D02*
X1195Y277D01*
X1224Y277D02*
X1235Y277D01*
X1568Y277D02*
X1575Y277D01*
X1Y276D02*
X8Y276D01*
X130Y276D02*
X136Y276D01*
X180Y276D02*
X186Y276D01*
X194Y276D02*
X201Y276D01*
X208Y276D02*
X214Y276D01*
X237Y276D02*
X243Y276D01*
X257Y276D02*
X264Y276D01*
X597Y276D02*
X606Y276D01*
X636Y276D02*
X646Y276D01*
X983Y276D02*
X992Y276D01*
X1042Y276D02*
X1052Y276D01*
X1074Y276D02*
X1090Y276D01*
X1114Y276D02*
X1123Y276D01*
X1153Y276D02*
X1162Y276D01*
X1186Y276D02*
X1195Y276D01*
X1223Y276D02*
X1235Y276D01*
X1568Y276D02*
X1575Y276D01*
X1Y275D02*
X8Y275D01*
X130Y275D02*
X136Y275D01*
X149Y275D02*
X163Y275D01*
X180Y275D02*
X186Y275D01*
X195Y275D02*
X201Y275D01*
X208Y275D02*
X214Y275D01*
X237Y275D02*
X243Y275D01*
X257Y275D02*
X263Y275D01*
X597Y275D02*
X606Y275D01*
X637Y275D02*
X646Y275D01*
X983Y275D02*
X992Y275D01*
X1042Y275D02*
X1053Y275D01*
X1073Y275D02*
X1090Y275D01*
X1114Y275D02*
X1123Y275D01*
X1153Y275D02*
X1162Y275D01*
X1186Y275D02*
X1195Y275D01*
X1222Y275D02*
X1235Y275D01*
X1568Y275D02*
X1575Y275D01*
X1Y274D02*
X8Y274D01*
X130Y274D02*
X136Y274D01*
X148Y274D02*
X163Y274D01*
X180Y274D02*
X186Y274D01*
X195Y274D02*
X202Y274D01*
X208Y274D02*
X214Y274D01*
X237Y274D02*
X243Y274D01*
X257Y274D02*
X263Y274D01*
X597Y274D02*
X606Y274D01*
X637Y274D02*
X646Y274D01*
X983Y274D02*
X992Y274D01*
X1043Y274D02*
X1054Y274D01*
X1071Y274D02*
X1090Y274D01*
X1114Y274D02*
X1123Y274D01*
X1153Y274D02*
X1162Y274D01*
X1186Y274D02*
X1195Y274D01*
X1221Y274D02*
X1235Y274D01*
X1568Y274D02*
X1575Y274D01*
X1Y273D02*
X8Y273D01*
X130Y273D02*
X136Y273D01*
X147Y273D02*
X163Y273D01*
X180Y273D02*
X186Y273D01*
X196Y273D02*
X202Y273D01*
X208Y273D02*
X214Y273D01*
X237Y273D02*
X243Y273D01*
X256Y273D02*
X263Y273D01*
X597Y273D02*
X606Y273D01*
X637Y273D02*
X646Y273D01*
X983Y273D02*
X992Y273D01*
X1043Y273D02*
X1056Y273D01*
X1070Y273D02*
X1090Y273D01*
X1114Y273D02*
X1123Y273D01*
X1153Y273D02*
X1162Y273D01*
X1186Y273D02*
X1196Y273D01*
X1220Y273D02*
X1235Y273D01*
X1568Y273D02*
X1575Y273D01*
X1Y272D02*
X8Y272D01*
X130Y272D02*
X136Y272D01*
X147Y272D02*
X163Y272D01*
X180Y272D02*
X186Y272D01*
X196Y272D02*
X203Y272D01*
X208Y272D02*
X214Y272D01*
X237Y272D02*
X243Y272D01*
X256Y272D02*
X262Y272D01*
X597Y272D02*
X606Y272D01*
X637Y272D02*
X646Y272D01*
X983Y272D02*
X992Y272D01*
X1044Y272D02*
X1090Y272D01*
X1114Y272D02*
X1123Y272D01*
X1153Y272D02*
X1162Y272D01*
X1186Y272D02*
X1197Y272D01*
X1219Y272D02*
X1235Y272D01*
X1568Y272D02*
X1575Y272D01*
X1Y271D02*
X8Y271D01*
X130Y271D02*
X136Y271D01*
X147Y271D02*
X163Y271D01*
X180Y271D02*
X186Y271D01*
X196Y271D02*
X203Y271D01*
X208Y271D02*
X214Y271D01*
X237Y271D02*
X243Y271D01*
X255Y271D02*
X262Y271D01*
X597Y271D02*
X606Y271D01*
X636Y271D02*
X646Y271D01*
X983Y271D02*
X992Y271D01*
X1044Y271D02*
X1090Y271D01*
X1114Y271D02*
X1123Y271D01*
X1153Y271D02*
X1162Y271D01*
X1187Y271D02*
X1198Y271D01*
X1217Y271D02*
X1235Y271D01*
X1568Y271D02*
X1575Y271D01*
X1Y270D02*
X8Y270D01*
X130Y270D02*
X136Y270D01*
X148Y270D02*
X163Y270D01*
X180Y270D02*
X186Y270D01*
X197Y270D02*
X204Y270D01*
X208Y270D02*
X214Y270D01*
X237Y270D02*
X243Y270D01*
X255Y270D02*
X262Y270D01*
X597Y270D02*
X606Y270D01*
X636Y270D02*
X645Y270D01*
X983Y270D02*
X992Y270D01*
X1045Y270D02*
X1090Y270D01*
X1114Y270D02*
X1123Y270D01*
X1153Y270D02*
X1162Y270D01*
X1187Y270D02*
X1199Y270D01*
X1216Y270D02*
X1235Y270D01*
X1568Y270D02*
X1575Y270D01*
X1Y269D02*
X8Y269D01*
X130Y269D02*
X136Y269D01*
X149Y269D02*
X163Y269D01*
X180Y269D02*
X186Y269D01*
X197Y269D02*
X204Y269D01*
X208Y269D02*
X214Y269D01*
X237Y269D02*
X243Y269D01*
X254Y269D02*
X261Y269D01*
X597Y269D02*
X606Y269D01*
X636Y269D02*
X645Y269D01*
X983Y269D02*
X992Y269D01*
X1046Y269D02*
X1090Y269D01*
X1114Y269D02*
X1123Y269D01*
X1153Y269D02*
X1162Y269D01*
X1187Y269D02*
X1200Y269D01*
X1215Y269D02*
X1235Y269D01*
X1568Y269D02*
X1575Y269D01*
X1Y268D02*
X8Y268D01*
X130Y268D02*
X136Y268D01*
X157Y268D02*
X163Y268D01*
X180Y268D02*
X186Y268D01*
X198Y268D02*
X204Y268D01*
X208Y268D02*
X214Y268D01*
X237Y268D02*
X243Y268D01*
X254Y268D02*
X261Y268D01*
X597Y268D02*
X606Y268D01*
X636Y268D02*
X645Y268D01*
X983Y268D02*
X992Y268D01*
X1047Y268D02*
X1079Y268D01*
X1081Y268D02*
X1090Y268D01*
X1114Y268D02*
X1123Y268D01*
X1153Y268D02*
X1162Y268D01*
X1188Y268D02*
X1203Y268D01*
X1212Y268D02*
X1235Y268D01*
X1568Y268D02*
X1575Y268D01*
X1Y267D02*
X8Y267D01*
X130Y267D02*
X136Y267D01*
X157Y267D02*
X163Y267D01*
X180Y267D02*
X186Y267D01*
X198Y267D02*
X205Y267D01*
X208Y267D02*
X214Y267D01*
X237Y267D02*
X243Y267D01*
X253Y267D02*
X260Y267D01*
X597Y267D02*
X606Y267D01*
X635Y267D02*
X645Y267D01*
X983Y267D02*
X992Y267D01*
X1049Y267D02*
X1078Y267D01*
X1081Y267D02*
X1090Y267D01*
X1114Y267D02*
X1123Y267D01*
X1153Y267D02*
X1162Y267D01*
X1189Y267D02*
X1235Y267D01*
X1568Y267D02*
X1575Y267D01*
X1Y266D02*
X8Y266D01*
X130Y266D02*
X136Y266D01*
X157Y266D02*
X163Y266D01*
X180Y266D02*
X186Y266D01*
X199Y266D02*
X205Y266D01*
X208Y266D02*
X214Y266D01*
X237Y266D02*
X243Y266D01*
X253Y266D02*
X260Y266D01*
X597Y266D02*
X606Y266D01*
X635Y266D02*
X645Y266D01*
X983Y266D02*
X992Y266D01*
X1050Y266D02*
X1077Y266D01*
X1081Y266D02*
X1090Y266D01*
X1114Y266D02*
X1123Y266D01*
X1153Y266D02*
X1162Y266D01*
X1190Y266D02*
X1235Y266D01*
X1568Y266D02*
X1575Y266D01*
X1Y265D02*
X8Y265D01*
X130Y265D02*
X136Y265D01*
X157Y265D02*
X163Y265D01*
X180Y265D02*
X186Y265D01*
X199Y265D02*
X206Y265D01*
X208Y265D02*
X214Y265D01*
X237Y265D02*
X243Y265D01*
X252Y265D02*
X259Y265D01*
X597Y265D02*
X606Y265D01*
X634Y265D02*
X644Y265D01*
X983Y265D02*
X992Y265D01*
X1051Y265D02*
X1075Y265D01*
X1081Y265D02*
X1090Y265D01*
X1114Y265D02*
X1123Y265D01*
X1153Y265D02*
X1162Y265D01*
X1191Y265D02*
X1235Y265D01*
X1568Y265D02*
X1575Y265D01*
X1Y264D02*
X8Y264D01*
X130Y264D02*
X136Y264D01*
X157Y264D02*
X163Y264D01*
X180Y264D02*
X186Y264D01*
X199Y264D02*
X214Y264D01*
X237Y264D02*
X243Y264D01*
X252Y264D02*
X259Y264D01*
X597Y264D02*
X606Y264D01*
X633Y264D02*
X644Y264D01*
X983Y264D02*
X992Y264D01*
X1053Y264D02*
X1074Y264D01*
X1081Y264D02*
X1090Y264D01*
X1114Y264D02*
X1123Y264D01*
X1153Y264D02*
X1162Y264D01*
X1192Y264D02*
X1235Y264D01*
X1568Y264D02*
X1575Y264D01*
X1Y263D02*
X8Y263D01*
X130Y263D02*
X136Y263D01*
X157Y263D02*
X163Y263D01*
X180Y263D02*
X186Y263D01*
X200Y263D02*
X214Y263D01*
X237Y263D02*
X243Y263D01*
X251Y263D02*
X258Y263D01*
X597Y263D02*
X606Y263D01*
X631Y263D02*
X643Y263D01*
X983Y263D02*
X992Y263D01*
X1054Y263D02*
X1072Y263D01*
X1081Y263D02*
X1090Y263D01*
X1114Y263D02*
X1123Y263D01*
X1153Y263D02*
X1162Y263D01*
X1193Y263D02*
X1223Y263D01*
X1226Y263D02*
X1235Y263D01*
X1568Y263D02*
X1575Y263D01*
X1Y262D02*
X8Y262D01*
X130Y262D02*
X136Y262D01*
X157Y262D02*
X163Y262D01*
X180Y262D02*
X186Y262D01*
X200Y262D02*
X214Y262D01*
X237Y262D02*
X243Y262D01*
X251Y262D02*
X258Y262D01*
X597Y262D02*
X606Y262D01*
X629Y262D02*
X643Y262D01*
X983Y262D02*
X992Y262D01*
X1060Y262D02*
X1066Y262D01*
X1081Y262D02*
X1090Y262D01*
X1114Y262D02*
X1123Y262D01*
X1153Y262D02*
X1162Y262D01*
X1194Y262D02*
X1222Y262D01*
X1226Y262D02*
X1234Y262D01*
X1568Y262D02*
X1575Y262D01*
X1Y261D02*
X8Y261D01*
X130Y261D02*
X136Y261D01*
X157Y261D02*
X163Y261D01*
X180Y261D02*
X186Y261D01*
X201Y261D02*
X214Y261D01*
X237Y261D02*
X243Y261D01*
X250Y261D02*
X257Y261D01*
X597Y261D02*
X642Y261D01*
X983Y261D02*
X992Y261D01*
X1081Y261D02*
X1090Y261D01*
X1114Y261D02*
X1122Y261D01*
X1154Y261D02*
X1162Y261D01*
X1195Y261D02*
X1221Y261D01*
X1226Y261D02*
X1234Y261D01*
X1568Y261D02*
X1575Y261D01*
X1Y260D02*
X8Y260D01*
X130Y260D02*
X136Y260D01*
X157Y260D02*
X163Y260D01*
X180Y260D02*
X186Y260D01*
X201Y260D02*
X214Y260D01*
X237Y260D02*
X243Y260D01*
X250Y260D02*
X257Y260D01*
X597Y260D02*
X642Y260D01*
X983Y260D02*
X992Y260D01*
X1081Y260D02*
X1090Y260D01*
X1115Y260D02*
X1122Y260D01*
X1154Y260D02*
X1161Y260D01*
X1197Y260D02*
X1219Y260D01*
X1227Y260D02*
X1234Y260D01*
X1568Y260D02*
X1575Y260D01*
X1Y259D02*
X8Y259D01*
X130Y259D02*
X137Y259D01*
X156Y259D02*
X163Y259D01*
X180Y259D02*
X186Y259D01*
X202Y259D02*
X214Y259D01*
X237Y259D02*
X243Y259D01*
X249Y259D02*
X256Y259D01*
X597Y259D02*
X641Y259D01*
X983Y259D02*
X992Y259D01*
X1081Y259D02*
X1090Y259D01*
X1115Y259D02*
X1121Y259D01*
X1155Y259D02*
X1160Y259D01*
X1199Y259D02*
X1217Y259D01*
X1227Y259D02*
X1233Y259D01*
X1568Y259D02*
X1575Y259D01*
X1Y258D02*
X8Y258D01*
X130Y258D02*
X139Y258D01*
X154Y258D02*
X163Y258D01*
X180Y258D02*
X186Y258D01*
X202Y258D02*
X214Y258D01*
X237Y258D02*
X243Y258D01*
X247Y258D02*
X256Y258D01*
X597Y258D02*
X640Y258D01*
X983Y258D02*
X992Y258D01*
X1081Y258D02*
X1090Y258D01*
X1118Y258D02*
X1119Y258D01*
X1157Y258D02*
X1158Y258D01*
X1202Y258D02*
X1213Y258D01*
X1230Y258D02*
X1231Y258D01*
X1568Y258D02*
X1575Y258D01*
X1Y257D02*
X8Y257D01*
X131Y257D02*
X162Y257D01*
X180Y257D02*
X186Y257D01*
X203Y257D02*
X214Y257D01*
X231Y257D02*
X255Y257D01*
X597Y257D02*
X639Y257D01*
X983Y257D02*
X992Y257D01*
X1081Y257D02*
X1090Y257D01*
X1568Y257D02*
X1575Y257D01*
X1Y256D02*
X8Y256D01*
X131Y256D02*
X162Y256D01*
X180Y256D02*
X186Y256D01*
X203Y256D02*
X214Y256D01*
X231Y256D02*
X255Y256D01*
X597Y256D02*
X638Y256D01*
X983Y256D02*
X992Y256D01*
X1081Y256D02*
X1090Y256D01*
X1568Y256D02*
X1575Y256D01*
X1Y255D02*
X8Y255D01*
X132Y255D02*
X161Y255D01*
X180Y255D02*
X186Y255D01*
X203Y255D02*
X214Y255D01*
X230Y255D02*
X254Y255D01*
X597Y255D02*
X636Y255D01*
X983Y255D02*
X992Y255D01*
X1081Y255D02*
X1090Y255D01*
X1568Y255D02*
X1575Y255D01*
X1Y254D02*
X8Y254D01*
X133Y254D02*
X160Y254D01*
X180Y254D02*
X186Y254D01*
X204Y254D02*
X214Y254D01*
X230Y254D02*
X253Y254D01*
X597Y254D02*
X635Y254D01*
X983Y254D02*
X992Y254D01*
X1081Y254D02*
X1090Y254D01*
X1568Y254D02*
X1575Y254D01*
X1Y253D02*
X8Y253D01*
X134Y253D02*
X159Y253D01*
X180Y253D02*
X186Y253D01*
X204Y253D02*
X214Y253D01*
X230Y253D02*
X252Y253D01*
X597Y253D02*
X633Y253D01*
X983Y253D02*
X992Y253D01*
X1081Y253D02*
X1090Y253D01*
X1568Y253D02*
X1575Y253D01*
X1Y252D02*
X8Y252D01*
X135Y252D02*
X157Y252D01*
X181Y252D02*
X185Y252D01*
X205Y252D02*
X214Y252D01*
X231Y252D02*
X250Y252D01*
X597Y252D02*
X629Y252D01*
X983Y252D02*
X992Y252D01*
X1080Y252D02*
X1090Y252D01*
X1568Y252D02*
X1575Y252D01*
X1Y251D02*
X8Y251D01*
X138Y251D02*
X155Y251D01*
X183Y251D02*
X183Y251D01*
X205Y251D02*
X213Y251D01*
X233Y251D02*
X247Y251D01*
X992Y251D02*
X992Y251D01*
X1079Y251D02*
X1090Y251D01*
X1568Y251D02*
X1575Y251D01*
X1Y250D02*
X8Y250D01*
X1078Y250D02*
X1089Y250D01*
X1568Y250D02*
X1575Y250D01*
X1Y249D02*
X8Y249D01*
X1077Y249D02*
X1089Y249D01*
X1568Y249D02*
X1575Y249D01*
X1Y248D02*
X8Y248D01*
X1076Y248D02*
X1088Y248D01*
X1568Y248D02*
X1575Y248D01*
X1Y247D02*
X3Y247D01*
X1074Y247D02*
X1088Y247D01*
X1568Y247D02*
X1575Y247D01*
X1Y246D02*
X3Y246D01*
X1049Y246D02*
X1087Y246D01*
X1568Y246D02*
X1575Y246D01*
X1Y245D02*
X3Y245D01*
X1048Y245D02*
X1086Y245D01*
X1568Y245D02*
X1575Y245D01*
X1Y244D02*
X3Y244D01*
X1047Y244D02*
X1085Y244D01*
X1568Y244D02*
X1575Y244D01*
X1Y243D02*
X3Y243D01*
X1046Y243D02*
X1084Y243D01*
X1568Y243D02*
X1575Y243D01*
X1Y242D02*
X3Y242D01*
X1046Y242D02*
X1083Y242D01*
X1568Y242D02*
X1575Y242D01*
X1Y241D02*
X3Y241D01*
X1046Y241D02*
X1082Y241D01*
X1568Y241D02*
X1575Y241D01*
X1Y240D02*
X3Y240D01*
X1047Y240D02*
X1081Y240D01*
X1568Y240D02*
X1575Y240D01*
X1Y239D02*
X3Y239D01*
X1047Y239D02*
X1079Y239D01*
X1568Y239D02*
X1575Y239D01*
X1Y238D02*
X3Y238D01*
X1048Y238D02*
X1078Y238D01*
X1568Y238D02*
X1575Y238D01*
X1Y237D02*
X3Y237D01*
X1049Y237D02*
X1075Y237D01*
X1568Y237D02*
X1575Y237D01*
X1Y236D02*
X3Y236D01*
X1568Y236D02*
X1575Y236D01*
X1Y235D02*
X3Y235D01*
X1568Y235D02*
X1575Y235D01*
X1Y234D02*
X3Y234D01*
X1568Y234D02*
X1575Y234D01*
X1Y233D02*
X3Y233D01*
X1568Y233D02*
X1575Y233D01*
X1Y232D02*
X3Y232D01*
X1568Y232D02*
X1575Y232D01*
X1Y231D02*
X3Y231D01*
X1568Y231D02*
X1575Y231D01*
X1Y230D02*
X3Y230D01*
X1568Y230D02*
X1575Y230D01*
X1Y229D02*
X3Y229D01*
X1568Y229D02*
X1575Y229D01*
X1Y228D02*
X3Y228D01*
X1568Y228D02*
X1575Y228D01*
X1Y227D02*
X3Y227D01*
X1568Y227D02*
X1575Y227D01*
X1Y226D02*
X3Y226D01*
X1568Y226D02*
X1575Y226D01*
X1Y225D02*
X3Y225D01*
X1568Y225D02*
X1575Y225D01*
X1Y224D02*
X3Y224D01*
X1568Y224D02*
X1575Y224D01*
X1Y223D02*
X3Y223D01*
X1568Y223D02*
X1575Y223D01*
X1Y222D02*
X3Y222D01*
X1568Y222D02*
X1575Y222D01*
X1Y221D02*
X3Y221D01*
X1568Y221D02*
X1575Y221D01*
X1Y220D02*
X3Y220D01*
X1568Y220D02*
X1575Y220D01*
X1Y219D02*
X3Y219D01*
X1568Y219D02*
X1575Y219D01*
X1Y218D02*
X3Y218D01*
X1568Y218D02*
X1575Y218D01*
X1Y217D02*
X3Y217D01*
X1568Y217D02*
X1575Y217D01*
X1Y216D02*
X3Y216D01*
X1568Y216D02*
X1575Y216D01*
X1Y215D02*
X3Y215D01*
X1568Y215D02*
X1575Y215D01*
X1Y214D02*
X3Y214D01*
X1568Y214D02*
X1575Y214D01*
X1Y213D02*
X3Y213D01*
X1568Y213D02*
X1575Y213D01*
X1Y212D02*
X3Y212D01*
X1568Y212D02*
X1575Y212D01*
X1Y211D02*
X3Y211D01*
X1568Y211D02*
X1575Y211D01*
X1Y210D02*
X3Y210D01*
X1568Y210D02*
X1575Y210D01*
X1Y209D02*
X3Y209D01*
X1568Y209D02*
X1575Y209D01*
X1Y208D02*
X3Y208D01*
X1568Y208D02*
X1575Y208D01*
X1Y207D02*
X3Y207D01*
X1568Y207D02*
X1575Y207D01*
X1Y206D02*
X3Y206D01*
X1568Y206D02*
X1575Y206D01*
X1Y205D02*
X3Y205D01*
X1568Y205D02*
X1575Y205D01*
X1Y204D02*
X3Y204D01*
X1568Y204D02*
X1575Y204D01*
X1Y203D02*
X3Y203D01*
X1568Y203D02*
X1575Y203D01*
X1Y202D02*
X3Y202D01*
X1568Y202D02*
X1575Y202D01*
X1Y201D02*
X3Y201D01*
X1568Y201D02*
X1575Y201D01*
X1Y200D02*
X3Y200D01*
X1568Y200D02*
X1575Y200D01*
X1Y199D02*
X3Y199D01*
X1568Y199D02*
X1575Y199D01*
X1Y198D02*
X3Y198D01*
X1568Y198D02*
X1575Y198D01*
X1Y197D02*
X3Y197D01*
X1568Y197D02*
X1575Y197D01*
X1Y196D02*
X3Y196D01*
X1568Y196D02*
X1575Y196D01*
X1Y195D02*
X3Y195D01*
X1568Y195D02*
X1575Y195D01*
X1Y194D02*
X3Y194D01*
X1568Y194D02*
X1575Y194D01*
X1Y193D02*
X3Y193D01*
X1568Y193D02*
X1575Y193D01*
X1Y192D02*
X3Y192D01*
X1568Y192D02*
X1575Y192D01*
X1Y191D02*
X3Y191D01*
X1568Y191D02*
X1575Y191D01*
X1Y190D02*
X3Y190D01*
X1568Y190D02*
X1575Y190D01*
X1Y189D02*
X3Y189D01*
X1568Y189D02*
X1575Y189D01*
X1Y188D02*
X3Y188D01*
X1568Y188D02*
X1575Y188D01*
X1Y187D02*
X3Y187D01*
X1568Y187D02*
X1575Y187D01*
X1Y186D02*
X3Y186D01*
X1568Y186D02*
X1575Y186D01*
X1Y185D02*
X3Y185D01*
X1568Y185D02*
X1575Y185D01*
X1Y184D02*
X3Y184D01*
X1568Y184D02*
X1575Y184D01*
X1Y183D02*
X3Y183D01*
X1568Y183D02*
X1575Y183D01*
X1Y182D02*
X3Y182D01*
X1568Y182D02*
X1575Y182D01*
X1Y181D02*
X3Y181D01*
X1568Y181D02*
X1575Y181D01*
X1Y180D02*
X3Y180D01*
X1568Y180D02*
X1575Y180D01*
X1Y179D02*
X3Y179D01*
X1568Y179D02*
X1575Y179D01*
X1Y178D02*
X3Y178D01*
X1568Y178D02*
X1575Y178D01*
X1Y177D02*
X3Y177D01*
X1568Y177D02*
X1575Y177D01*
X1Y176D02*
X3Y176D01*
X1568Y176D02*
X1575Y176D01*
X1Y175D02*
X3Y175D01*
X1568Y175D02*
X1575Y175D01*
X1Y174D02*
X3Y174D01*
X1568Y174D02*
X1575Y174D01*
X1Y173D02*
X3Y173D01*
X1568Y173D02*
X1575Y173D01*
X1Y172D02*
X3Y172D01*
X1568Y172D02*
X1575Y172D01*
X1Y171D02*
X3Y171D01*
X1568Y171D02*
X1575Y171D01*
X1Y170D02*
X3Y170D01*
X1568Y170D02*
X1575Y170D01*
X1Y169D02*
X3Y169D01*
X1568Y169D02*
X1575Y169D01*
X1Y168D02*
X3Y168D01*
X1568Y168D02*
X1575Y168D01*
X1Y167D02*
X3Y167D01*
X1568Y167D02*
X1575Y167D01*
X1Y166D02*
X3Y166D01*
X1568Y166D02*
X1575Y166D01*
X1Y165D02*
X3Y165D01*
X1568Y165D02*
X1575Y165D01*
X1Y164D02*
X3Y164D01*
X1568Y164D02*
X1575Y164D01*
X1Y163D02*
X3Y163D01*
X1568Y163D02*
X1575Y163D01*
X1Y162D02*
X3Y162D01*
X1568Y162D02*
X1575Y162D01*
X1Y161D02*
X3Y161D01*
X1568Y161D02*
X1575Y161D01*
X1Y160D02*
X3Y160D01*
X1568Y160D02*
X1575Y160D01*
X1Y159D02*
X3Y159D01*
X1568Y159D02*
X1575Y159D01*
X1Y158D02*
X3Y158D01*
X1568Y158D02*
X1575Y158D01*
X1Y157D02*
X3Y157D01*
X1568Y157D02*
X1575Y157D01*
X1Y156D02*
X3Y156D01*
X1568Y156D02*
X1575Y156D01*
X1Y155D02*
X3Y155D01*
X1568Y155D02*
X1575Y155D01*
X1Y154D02*
X3Y154D01*
X1568Y154D02*
X1575Y154D01*
X1Y153D02*
X3Y153D01*
X1568Y153D02*
X1575Y153D01*
X1Y152D02*
X3Y152D01*
X1568Y152D02*
X1575Y152D01*
X1Y151D02*
X3Y151D01*
X1568Y151D02*
X1575Y151D01*
X1Y150D02*
X3Y150D01*
X1568Y150D02*
X1575Y150D01*
X1Y149D02*
X3Y149D01*
X1568Y149D02*
X1575Y149D01*
X1Y148D02*
X3Y148D01*
X1568Y148D02*
X1575Y148D01*
X1Y147D02*
X3Y147D01*
X1568Y147D02*
X1575Y147D01*
X1Y146D02*
X3Y146D01*
X1568Y146D02*
X1575Y146D01*
X1Y145D02*
X3Y145D01*
X1568Y145D02*
X1575Y145D01*
X1Y144D02*
X3Y144D01*
X1568Y144D02*
X1575Y144D01*
X1Y143D02*
X3Y143D01*
X1568Y143D02*
X1575Y143D01*
X1Y142D02*
X3Y142D01*
X1568Y142D02*
X1575Y142D01*
X1Y141D02*
X3Y141D01*
X1568Y141D02*
X1575Y141D01*
X1Y140D02*
X3Y140D01*
X1568Y140D02*
X1575Y140D01*
X1Y139D02*
X3Y139D01*
X1568Y139D02*
X1575Y139D01*
X1Y138D02*
X3Y138D01*
X1568Y138D02*
X1575Y138D01*
X1Y137D02*
X3Y137D01*
X1568Y137D02*
X1575Y137D01*
X1Y136D02*
X3Y136D01*
X1568Y136D02*
X1575Y136D01*
X1Y135D02*
X3Y135D01*
X1568Y135D02*
X1575Y135D01*
X1Y134D02*
X3Y134D01*
X1568Y134D02*
X1575Y134D01*
X1Y133D02*
X3Y133D01*
X1568Y133D02*
X1575Y133D01*
X1Y132D02*
X3Y132D01*
X1568Y132D02*
X1575Y132D01*
X1Y131D02*
X3Y131D01*
X1568Y131D02*
X1575Y131D01*
X1Y130D02*
X3Y130D01*
X1568Y130D02*
X1575Y130D01*
X1Y129D02*
X3Y129D01*
X1568Y129D02*
X1575Y129D01*
X1Y128D02*
X3Y128D01*
X1568Y128D02*
X1575Y128D01*
X1Y127D02*
X3Y127D01*
X1568Y127D02*
X1575Y127D01*
X1Y126D02*
X3Y126D01*
X1568Y126D02*
X1575Y126D01*
X1Y125D02*
X3Y125D01*
X1568Y125D02*
X1575Y125D01*
X1Y124D02*
X3Y124D01*
X1568Y124D02*
X1575Y124D01*
X1Y123D02*
X3Y123D01*
X1568Y123D02*
X1575Y123D01*
X1Y122D02*
X3Y122D01*
X1568Y122D02*
X1575Y122D01*
X1Y121D02*
X3Y121D01*
X1568Y121D02*
X1575Y121D01*
X1Y120D02*
X3Y120D01*
X1568Y120D02*
X1575Y120D01*
X1Y119D02*
X3Y119D01*
X1568Y119D02*
X1575Y119D01*
X1Y118D02*
X3Y118D01*
X1568Y118D02*
X1575Y118D01*
X1Y117D02*
X3Y117D01*
X1568Y117D02*
X1575Y117D01*
X1Y116D02*
X3Y116D01*
X1568Y116D02*
X1575Y116D01*
X1Y115D02*
X3Y115D01*
X1568Y115D02*
X1575Y115D01*
X1Y114D02*
X3Y114D01*
X1568Y114D02*
X1575Y114D01*
X1Y113D02*
X3Y113D01*
X1568Y113D02*
X1575Y113D01*
X1Y112D02*
X3Y112D01*
X1568Y112D02*
X1575Y112D01*
X1Y111D02*
X3Y111D01*
X1568Y111D02*
X1575Y111D01*
X1Y110D02*
X3Y110D01*
X1568Y110D02*
X1575Y110D01*
X1Y109D02*
X3Y109D01*
X1568Y109D02*
X1575Y109D01*
X1Y108D02*
X3Y108D01*
X1568Y108D02*
X1575Y108D01*
X1Y107D02*
X3Y107D01*
X1568Y107D02*
X1575Y107D01*
X1Y106D02*
X3Y106D01*
X1568Y106D02*
X1575Y106D01*
X1Y105D02*
X3Y105D01*
X1568Y105D02*
X1575Y105D01*
X1Y104D02*
X3Y104D01*
X1568Y104D02*
X1575Y104D01*
X1Y103D02*
X3Y103D01*
X1568Y103D02*
X1575Y103D01*
X1Y102D02*
X3Y102D01*
X1568Y102D02*
X1575Y102D01*
X1Y101D02*
X3Y101D01*
X1568Y101D02*
X1575Y101D01*
X1Y100D02*
X3Y100D01*
X1568Y100D02*
X1575Y100D01*
X1Y99D02*
X3Y99D01*
X1568Y99D02*
X1575Y99D01*
X1Y98D02*
X3Y98D01*
X1568Y98D02*
X1575Y98D01*
X1Y97D02*
X3Y97D01*
X1568Y97D02*
X1575Y97D01*
X1Y96D02*
X3Y96D01*
X1568Y96D02*
X1575Y96D01*
X1Y95D02*
X3Y95D01*
X1568Y95D02*
X1575Y95D01*
X1Y94D02*
X3Y94D01*
X1568Y94D02*
X1575Y94D01*
X1Y93D02*
X3Y93D01*
X1568Y93D02*
X1575Y93D01*
X1Y92D02*
X3Y92D01*
X1568Y92D02*
X1575Y92D01*
X1Y91D02*
X3Y91D01*
X1568Y91D02*
X1575Y91D01*
X1Y90D02*
X3Y90D01*
X1568Y90D02*
X1575Y90D01*
X1Y89D02*
X3Y89D01*
X1568Y89D02*
X1575Y89D01*
X1Y88D02*
X3Y88D01*
X1568Y88D02*
X1575Y88D01*
X1Y87D02*
X3Y87D01*
X1568Y87D02*
X1575Y87D01*
X1Y86D02*
X3Y86D01*
X1568Y86D02*
X1575Y86D01*
X1Y85D02*
X3Y85D01*
X1568Y85D02*
X1575Y85D01*
X1Y84D02*
X3Y84D01*
X1568Y84D02*
X1575Y84D01*
X1Y83D02*
X3Y83D01*
X1568Y83D02*
X1575Y83D01*
X1Y82D02*
X3Y82D01*
X1568Y82D02*
X1575Y82D01*
X1Y81D02*
X3Y81D01*
X1568Y81D02*
X1575Y81D01*
X1Y80D02*
X3Y80D01*
X1568Y80D02*
X1575Y80D01*
X1Y79D02*
X3Y79D01*
X1568Y79D02*
X1575Y79D01*
X1Y78D02*
X3Y78D01*
X1568Y78D02*
X1575Y78D01*
X1Y77D02*
X3Y77D01*
X1568Y77D02*
X1575Y77D01*
X1Y76D02*
X3Y76D01*
X1568Y76D02*
X1575Y76D01*
X1Y75D02*
X3Y75D01*
X1568Y75D02*
X1575Y75D01*
X1Y74D02*
X3Y74D01*
X1568Y74D02*
X1575Y74D01*
X1Y73D02*
X3Y73D01*
X1568Y73D02*
X1575Y73D01*
X1Y72D02*
X3Y72D01*
X1568Y72D02*
X1575Y72D01*
X1Y71D02*
X3Y71D01*
X1568Y71D02*
X1575Y71D01*
X1Y70D02*
X3Y70D01*
X1568Y70D02*
X1575Y70D01*
X1Y69D02*
X3Y69D01*
X1568Y69D02*
X1575Y69D01*
X1Y68D02*
X3Y68D01*
X1568Y68D02*
X1575Y68D01*
X1Y67D02*
X3Y67D01*
X1568Y67D02*
X1575Y67D01*
X1Y66D02*
X3Y66D01*
X1568Y66D02*
X1575Y66D01*
X1Y65D02*
X3Y65D01*
X1568Y65D02*
X1575Y65D01*
X1Y64D02*
X3Y64D01*
X1568Y64D02*
X1575Y64D01*
X1Y63D02*
X3Y63D01*
X1568Y63D02*
X1575Y63D01*
X1Y62D02*
X3Y62D01*
X1568Y62D02*
X1575Y62D01*
X1Y61D02*
X3Y61D01*
X1568Y61D02*
X1575Y61D01*
X1Y60D02*
X3Y60D01*
X1568Y60D02*
X1575Y60D01*
X1Y59D02*
X3Y59D01*
X1568Y59D02*
X1575Y59D01*
X1Y58D02*
X3Y58D01*
X1568Y58D02*
X1575Y58D01*
X1Y57D02*
X3Y57D01*
X1568Y57D02*
X1575Y57D01*
X1Y56D02*
X3Y56D01*
X1568Y56D02*
X1575Y56D01*
X1Y55D02*
X3Y55D01*
X1568Y55D02*
X1575Y55D01*
X1Y54D02*
X3Y54D01*
X1568Y54D02*
X1575Y54D01*
X1Y53D02*
X3Y53D01*
X1568Y53D02*
X1575Y53D01*
X1Y52D02*
X3Y52D01*
X1568Y52D02*
X1575Y52D01*
X1Y51D02*
X3Y51D01*
X1568Y51D02*
X1575Y51D01*
X1Y50D02*
X3Y50D01*
X1568Y50D02*
X1575Y50D01*
X1Y49D02*
X3Y49D01*
X1568Y49D02*
X1575Y49D01*
X1Y48D02*
X3Y48D01*
X1568Y48D02*
X1575Y48D01*
X1Y47D02*
X3Y47D01*
X1568Y47D02*
X1575Y47D01*
X1Y46D02*
X3Y46D01*
X1568Y46D02*
X1575Y46D01*
X1Y45D02*
X3Y45D01*
X1568Y45D02*
X1575Y45D01*
X1Y44D02*
X3Y44D01*
X1568Y44D02*
X1575Y44D01*
X1Y43D02*
X3Y43D01*
X1568Y43D02*
X1575Y43D01*
X1Y42D02*
X3Y42D01*
X1568Y42D02*
X1575Y42D01*
X1Y41D02*
X3Y41D01*
X1568Y41D02*
X1575Y41D01*
X1Y40D02*
X3Y40D01*
X1568Y40D02*
X1575Y40D01*
X1Y39D02*
X3Y39D01*
X1568Y39D02*
X1575Y39D01*
X1Y38D02*
X3Y38D01*
X1568Y38D02*
X1575Y38D01*
X1Y37D02*
X3Y37D01*
X1568Y37D02*
X1575Y37D01*
X1Y36D02*
X3Y36D01*
X1568Y36D02*
X1575Y36D01*
X1Y35D02*
X3Y35D01*
X1568Y35D02*
X1575Y35D01*
X1Y34D02*
X3Y34D01*
X1568Y34D02*
X1575Y34D01*
X1Y33D02*
X3Y33D01*
X1568Y33D02*
X1575Y33D01*
X1Y32D02*
X3Y32D01*
X1568Y32D02*
X1575Y32D01*
X1Y31D02*
X3Y31D01*
X1568Y31D02*
X1575Y31D01*
X1Y30D02*
X3Y30D01*
X1568Y30D02*
X1575Y30D01*
X1Y29D02*
X3Y29D01*
X1568Y29D02*
X1575Y29D01*
X1Y28D02*
X3Y28D01*
X1568Y28D02*
X1575Y28D01*
X1Y27D02*
X3Y27D01*
X1568Y27D02*
X1575Y27D01*
X1Y26D02*
X3Y26D01*
X1568Y26D02*
X1575Y26D01*
X1Y25D02*
X8Y25D01*
X1568Y25D02*
X1575Y25D01*
X1Y24D02*
X8Y24D01*
X1568Y24D02*
X1575Y24D01*
X1Y23D02*
X8Y23D01*
X1568Y23D02*
X1575Y23D01*
X1Y22D02*
X8Y22D01*
X1568Y22D02*
X1575Y22D01*
X1Y21D02*
X8Y21D01*
X1568Y21D02*
X1575Y21D01*
X1Y20D02*
X8Y20D01*
X1568Y20D02*
X1575Y20D01*
X1Y19D02*
X8Y19D01*
X1568Y19D02*
X1575Y19D01*
X1Y18D02*
X8Y18D01*
X1568Y18D02*
X1575Y18D01*
X1Y17D02*
X8Y17D01*
X1568Y17D02*
X1575Y17D01*
X1Y16D02*
X8Y16D01*
X1568Y16D02*
X1575Y16D01*
X1Y15D02*
X8Y15D01*
X1568Y15D02*
X1575Y15D01*
X1Y14D02*
X8Y14D01*
X1568Y14D02*
X1575Y14D01*
X1Y13D02*
X8Y13D01*
X1568Y13D02*
X1575Y13D01*
X1Y12D02*
X8Y12D01*
X1568Y12D02*
X1575Y12D01*
X1Y11D02*
X8Y11D01*
X1568Y11D02*
X1575Y11D01*
X1Y10D02*
X8Y10D01*
X1568Y10D02*
X1575Y10D01*
X1Y9D02*
X8Y9D01*
X1568Y9D02*
X1575Y9D01*
X1Y8D02*
X1575Y8D01*
X1Y7D02*
X1575Y7D01*
X1Y6D02*
X1575Y6D01*
X1Y5D02*
X1575Y5D01*
X1Y4D02*
X1575Y4D01*
X1Y3D02*
X1575Y3D01*
X1Y2D02*
X1575Y2D01*
X1Y1D02*
X1575Y1D01*
D02*
G04 End of Silk1*
M02*